<svg width="220" height="285" viewBox="0 0 220 285" fill="none" xmlns="http://www.w3.org/2000/svg">
<path d="M90.2404 57.4396C94.3954 54.3419 98.7814 51.5718 103.972 50.8272C106.22 50.507 106.116 49.4496 106.116 47.9082C106.101 33.9089 106.101 19.9023 106.124 5.90304C106.124 4.83821 105.93 3.78082 106.615 2.70854C107.605 1.15969 108.611 -0.351929 110.658 0.0725159C112.937 0.541639 114.233 2.18729 114.419 4.50312C114.56 6.25302 114.456 8.02527 114.456 9.79006C114.456 22.5904 114.523 35.3833 114.382 48.1837C114.359 50.1123 115.141 50.7601 116.638 51.1101C129.029 54.0142 136.363 61.9595 139.506 74.0525C139.96 75.7949 140.355 77.6416 140.265 79.4139C140.176 81.2531 141.151 81.9382 142.492 82.3403C152.15 85.2295 160.825 90.092 168.986 95.8555C170.617 97.0097 171.503 96.8235 172.717 95.8853C177.453 92.2291 181.392 87.8804 184.288 82.6009C186.016 79.4585 190.968 76.9193 193.924 78.1331C195.54 78.7958 197.267 80.017 198.25 81.7669C202.674 89.6303 208.839 95.6991 216.665 100.219C220.709 102.557 221.059 108.544 217.805 112.104C215.496 114.62 212.242 115.797 209.777 118.031C206.24 121.225 202.711 124.442 200.157 128.553C199.561 129.506 199.546 130.28 200.075 131.151C201.78 133.921 203.619 136.87 204.632 139.737C206.814 145.955 209.271 152.18 210.41 158.725C211.818 166.82 213.009 174.966 212.667 183.209C212.123 196.36 209.695 209.138 204.282 221.23C203.589 222.772 203.068 224.447 202.085 225.773C201.065 227.143 199.799 228.602 197.662 228.111C197.104 227.746 196.553 227.381 195.994 227.009C195.838 226.852 195.689 226.696 195.532 226.532C194.028 224.745 194.237 223.062 195.361 221.052C196.724 218.602 198.168 216.174 198.578 213.233C198.786 211.736 198.585 211.491 197.245 211.483C194.676 211.468 192.115 211.863 189.605 212.168C181.072 213.203 172.501 213.561 163.945 214.194C162.128 214.328 161.368 214.901 161.003 216.435C158.978 224.976 155.746 233.085 152.112 241.053C151.614 242.147 150.184 243.361 150.861 244.337C151.755 245.625 153.646 245.007 155.017 244.843C162.478 243.957 169.984 243.763 177.467 243.302C180.185 243.13 182.442 242.319 183.73 240.092C185.517 237.009 187.892 235.9 191.273 236.682C193.358 239.832 193.298 241.09 190.886 244.195C182.166 255.417 171.704 264.613 159.313 271.628C150.698 276.505 141.628 280.035 131.977 282.276C127.368 283.348 122.759 284.018 118.082 284.48C117.889 284.503 117.718 284.8 117.539 284.972C115.685 284.972 113.831 284.972 111.976 284.972C111.232 284.182 110.495 284.182 109.75 284.972C109.005 284.972 108.268 284.972 107.523 284.972C106.965 284.257 106.414 284.257 105.855 284.972C104.925 284.972 104.001 284.972 103.071 284.972C102.326 284.249 101.589 283.974 100.844 284.972C99.9132 284.972 98.9899 284.972 98.0591 284.972C95.0209 284.413 91.9828 283.855 88.9372 283.296C77.7379 281.241 67.2236 277.302 57.305 271.754C50.9011 268.173 44.9663 263.906 39.5081 258.991C38.2422 257.852 37.4082 258.045 36.1795 259.468C33.9679 262.029 32.1212 264.829 30.1182 267.525C26.9609 271.769 20.8325 271.97 18.189 267.547C14.4956 261.374 9.73737 256.593 3.52708 252.915C-1.38754 250.011 -1.0599 243.398 3.84727 240.308C7.66728 237.903 11.0182 235.006 14.1084 231.745C15.5158 230.263 15.836 229.012 14.8605 226.972C10.1171 217.053 6.69924 206.71 5.06848 195.764C3.98876 188.533 3.5941 181.281 4.10045 174.072C4.927 162.285 7.63749 150.899 12.2691 139.916C15.2998 132.73 19.4102 126.252 23.5132 119.721C24.0642 118.843 24.9727 118.195 25.7173 117.435C25.7173 117.294 25.7173 117.152 25.7173 117.011C29.1576 112.193 33.5212 108.217 37.6911 104.076C43.6706 98.1415 50.4841 93.3237 57.9007 89.3548C64.1035 86.0337 70.4702 83.0552 77.3209 81.2755C79.1229 80.8063 79.5771 79.8755 79.8154 77.9469C80.6494 71.2303 82.5036 64.8338 88.0213 60.2096C88.0288 59.9788 88.0362 59.7479 88.0437 59.5097C88.4309 58.8022 88.967 58.2512 89.6819 57.8714C89.8382 57.7225 90.0393 57.581 90.2404 57.4396ZM62.4281 108.44C65.1088 108.954 67.6629 107.695 70.351 107.911C71.7137 108.023 72.719 106.824 72.8754 105.729C73.1434 103.853 74.4168 102.706 75.3103 101.284C75.4667 101.09 75.6156 100.904 75.772 100.711C78.14 96.1534 81.7366 92.4227 84.7524 87.6347C79.7707 88.8484 75.3848 90.1367 71.3042 92.3259C70.8499 92.3706 70.3361 92.2961 69.9489 92.4823C62.0781 96.3023 54.386 100.435 47.7959 106.295C46.7311 107.241 44.8173 107.464 44.661 109.661C50.6553 109.252 56.538 108.842 62.4281 108.44ZM51.817 146.997C53.5743 147.839 54.6466 147.742 55.2497 145.449C56.7614 139.745 58.6006 134.13 60.9016 128.687C62.5547 124.777 64.3046 120.92 66.1736 116.668C63.0238 117.323 60.1271 116.125 57.4166 117.525C56.4933 117.487 55.5699 117.435 54.6466 117.428C49.2331 117.383 43.8717 118.351 38.4805 118.426C36.0902 118.455 34.452 119.185 33.052 120.965C26.4992 129.305 21.5846 138.546 17.8912 148.464C17.1168 150.542 18.4794 150.378 19.656 150.207C24.8312 149.47 24.9429 149.492 26.8864 153.595C26.3354 156.276 24.794 157.69 22.0016 158.174C20.4527 158.442 18.9262 158.658 17.3848 158.584C15.3445 158.48 14.2946 159.656 14.0712 161.354C13.3787 166.589 12.7085 171.839 12.3883 177.103C12.1277 181.415 12.2617 185.741 12.8574 190.067C13.3638 193.738 13.5946 197.432 14.4882 201.058C14.7935 202.279 15.2179 202.436 16.2306 202.577C19.6634 203.039 23.126 203.337 26.5513 203.806C29.4033 204.201 32.2925 203.769 35.0477 204.372C40.2676 205.519 45.6216 205.027 50.8415 205.921C52.8669 206.271 53.2988 205.213 52.8669 203.553C51.2659 197.313 51.2957 190.894 50.7894 184.542C50.1639 176.813 51.5266 169.135 51.9063 161.421C52.8446 160.043 52.4425 158.368 52.8818 156.856C53.269 155.546 52.0701 155.844 51.2883 155.911C49.8362 155.851 48.4512 155.851 46.9694 156.231C42.0622 157.504 39.5155 156.372 37.3858 152.411C38.6517 148.367 39.0911 148.085 43.2387 148.018C46.1279 147.98 48.9873 147.623 51.817 146.997ZM71.885 215.467C69.8968 215.206 67.8714 215.586 65.8832 214.886C64.5801 214.432 63.694 215.132 64.1556 216.614C67.1044 226.1 70.7829 235.289 75.4295 244.076C75.7869 244.754 76.2784 245.521 77.3358 245.446C79.3612 245.297 81.3643 245.878 83.3301 245.915C93.0551 246.064 102.788 245.93 112.52 245.893C121.396 246.273 130.257 245.863 139.118 245.461C140.481 245.401 141.002 244.567 141.494 243.532C143.11 240.167 144.822 236.838 146.379 233.443C148.866 228.014 150.534 222.28 152.47 216.643C152.909 215.363 152.678 214.335 150.876 215.139C150.474 215.318 149.99 215.355 149.536 215.378C139.409 215.757 129.282 216.212 119.147 216.465C113.972 216.591 108.782 216.293 103.599 216.286C99.809 216.279 95.9592 216.874 92.236 216.39C85.4598 215.512 78.6314 216.554 71.885 215.467ZM60.2761 198.683C60.3356 199.911 60.5963 201.155 60.8569 202.302C61.2962 204.201 60.7601 207.529 64.662 206.367C65.1907 206.71 65.6598 207.067 66.3821 207.06C75.1167 206.993 83.8365 208.013 92.5413 208.021C103.033 208.035 113.54 208.184 124.054 207.745C133.601 207.343 143.154 206.814 152.708 206.554C154.413 206.509 155.046 205.861 155.225 204.565C155.903 199.815 156.789 195.056 156.975 190.276C157.206 184.348 157.563 178.414 157.102 172.449C156.699 167.289 155.828 162.188 155.329 157.05C155.247 156.216 154.771 155.479 153.438 155.196C149.097 154.287 144.666 154.488 140.34 154.347C130.667 154.019 120.987 153.334 111.306 153.416C100.978 153.506 90.6499 154.086 80.3218 154.101C74.6029 154.109 68.9288 154.987 63.2174 154.734C62.1526 154.689 61.5122 154.987 61.2962 156.186C59.9931 163.446 59.4123 170.774 59.0995 178.131C58.8017 185.004 59.6133 191.84 60.2761 198.683ZM91.7892 115.782C87.7607 115.782 84.8119 115.373 82.0419 115.901C79.5846 116.37 76.3603 115.06 74.7593 118.329C70.701 126.624 66.8736 134.994 64.4014 143.944C63.7908 146.141 64.3716 146.461 66.3449 146.364C75.0721 145.947 83.8067 145.545 92.5413 145.27C101.142 144.994 109.75 144.786 118.351 145.27C121.999 145.478 125.648 145.277 129.326 145.538C136.475 146.052 143.691 146.387 150.891 146.372C152.299 146.372 152.738 146.275 152.276 144.503C149.834 135.113 145.857 126.371 141.486 117.785C141.084 116.988 140.742 116.214 139.513 116.266C137.227 116.37 134.941 115.946 132.677 115.842C125.864 115.544 119.028 115.79 112.207 115.238C105.007 114.673 97.8357 116.139 91.7892 115.782ZM204.379 182.04C204.364 173.879 203.359 167.11 202.189 160.349C202.018 159.358 201.579 159.262 200.782 159.098C197.923 158.495 195.056 158.092 192.137 158.048C189.292 158.003 186.455 157.646 183.648 157.355C177.646 156.722 171.629 156.357 165.628 155.799C163.535 155.605 163.438 156.856 163.788 158.16C165.792 165.785 165.739 173.648 165.762 181.37C165.777 188.615 165.568 196.002 163.781 203.173C163.215 205.422 164.161 206.487 166.328 205.854C169.753 204.848 173.253 205.422 176.723 204.938C183.693 203.955 190.774 203.836 197.774 203.046C199.583 202.845 202.07 203.27 202.487 199.822C203.225 193.478 204.297 187.171 204.379 182.04ZM150.497 116.906C152.135 120.496 153.855 123.958 155.307 127.532C157.667 133.341 159.574 139.313 161.257 145.359C161.532 146.357 161.569 147.556 163.2 147.519C166.134 147.444 169.068 147.452 171.987 148.025C176.328 148.874 180.766 148.003 185.212 148.993C188.965 149.827 192.993 149.73 196.88 150.274C198.682 150.527 199.233 149.782 198.556 148.077C197.126 144.495 195.823 140.869 194.036 137.429C193.462 136.319 192.822 135.962 191.578 135.731C188.838 135.217 186.18 134.376 184.69 131.554C182.092 126.624 178.309 122.64 174.31 118.835C173.826 118.373 173.402 117.949 172.665 117.964C165.307 118.09 158.025 116.624 150.497 116.906ZM17.5412 211.386C18.5018 214.961 19.9538 217.991 21.2793 221.074C21.674 221.99 22.0239 222.794 23.4238 222.66C27.1173 222.31 29.5076 224.157 31.3617 227.307C33.3425 230.68 35.8221 233.666 38.8826 236.272C41.7792 238.744 45.629 240.01 47.8182 243.346C47.9746 243.585 48.4437 243.711 48.7863 243.733C53.8051 244.128 58.824 244.486 63.8429 244.88C65.9577 245.044 66.263 244.188 65.3992 242.43C64.3567 240.293 63.7237 237.873 62.3313 236.012C61.0728 234.329 62.7706 232.132 60.8718 230.784C59.792 230.017 59.4123 228.811 58.9878 227.552C57.7592 223.859 56.3593 220.233 55.6295 216.383C55.3689 214.99 54.803 214 52.9339 214.209C49.449 214.596 45.9715 213.784 42.5015 213.546C39.7761 213.36 36.9986 213.486 34.2956 212.987C28.8448 211.982 23.3122 211.885 17.5412 211.386ZM135.112 107.129C133.556 104.337 131.806 101.507 129.729 98.8713C126.393 94.6418 123.28 90.2335 119.549 86.3241C118.827 85.5646 118.12 85.088 116.951 85.0955C111.113 85.1625 105.275 85.1029 99.4292 85.1253C98.6399 85.1253 97.7761 84.9391 97.1506 85.7582C92.7647 91.5515 87.8724 96.965 84.0226 103.175C83.1961 104.516 81.9004 105.588 81.7291 107.129C99.5856 107.129 117.293 107.129 135.112 107.129ZM81.6398 254.419C85.9587 261.21 90.7616 267.108 95.289 273.214C97.6868 276.453 100.442 276.743 103.837 276.632C107.725 276.505 111.612 276.587 115.499 276.609C117.33 276.617 118.768 276.014 119.944 274.524C121.962 271.97 124.226 269.602 126.214 267.026C129.274 263.049 132.342 259.058 134.904 254.419C117.1 254.419 99.6228 254.419 81.6398 254.419ZM191.601 126.788C196.18 118.47 202.346 112.267 210.038 107.613C211.758 106.571 210.753 106.325 209.785 105.729C202.77 101.358 197.051 95.6545 192.703 88.6325C191.698 87.0092 191.325 87.1805 190.372 88.6251C185.51 96.0342 179.508 102.289 171.436 106.675C179.716 111.679 186.366 118.195 191.601 126.788ZM109.214 58.4523C107.509 58.2289 106.101 59.3607 104.508 59.5171C96.3464 60.3139 89.1681 69.9495 88.2001 76.9789C88.0511 78.0437 88.6617 78.9001 89.6893 78.3937C93.5912 76.48 97.8208 77.6342 101.872 76.964C105.483 76.3683 109.303 76.3311 113.093 76.7108C117.375 77.1353 121.776 76.2045 125.983 77.8799C126.981 78.2746 128.128 78.3416 129.222 78.4533C131.166 78.6543 131.985 77.3661 131.374 75.8843C130.116 72.8313 129.505 69.5325 127.383 66.7848C122.736 60.783 116.191 59.1969 109.214 58.4523ZM39.0687 246.786C33.3722 243.101 28.5246 238.744 25.0546 232.996C24.3993 231.909 23.8557 231.864 23.2005 233.152C22.5526 234.433 21.6888 235.647 20.7283 236.726C17.7274 240.115 14.652 243.443 10.6756 245.774C9.998 246.168 9.03741 246.846 10.5937 247.673C15.8136 250.458 19.5592 254.821 22.9324 259.55C23.8781 260.875 24.5334 261.247 25.6205 259.565C29.0161 254.27 33.4541 250.003 39.0687 246.786ZM84.596 273.549C80.4483 268.046 76.6209 262.416 73.1434 256.608C71.5648 253.98 69.733 253.161 66.9927 253.19C64.595 253.22 62.1898 253.176 59.7995 253.041C55.3242 252.788 50.8564 252.438 46.3811 252.155C45.9715 252.133 45.3535 251.999 45.279 252.632C45.2492 252.915 45.5099 253.324 45.763 253.525C48.0565 255.402 50.283 257.398 52.5988 259.222C56.9252 262.632 61.8696 265.09 66.8587 267.473C72.5254 270.168 78.4527 272 84.596 273.549ZM172.463 252.029C168.956 252.409 166.387 251.798 163.513 252.379C159.596 253.168 155.314 253.63 151.197 253.176C147.243 252.736 144.331 253.66 142.872 257.658C142.633 258.321 142.06 258.857 141.65 259.46C138.508 264.003 135.373 268.545 131.776 273.75C147.287 269.595 160.371 262.61 172.463 252.029ZM131.858 87.7017C136.557 93.9641 140.734 99.7872 144.361 105.99C144.994 107.077 145.843 107.785 147.458 108.12C151.1 108.887 154.748 108.254 158.39 108.969C162.552 109.78 162.627 109.415 163.148 105.186C163.193 104.821 163.163 104.367 163.371 104.121C164.563 102.691 163.535 102.118 162.485 101.388C157.608 98.0075 152.418 95.1407 147.019 92.7429C142.32 90.6579 137.428 88.9974 131.858 87.7017Z" fill="#272727"/>
<path d="M100.822 284.957C101.567 283.959 102.304 284.234 103.049 284.957C102.304 284.957 101.559 284.957 100.822 284.957Z" fill="#495059"/>
<path d="M109.728 284.957C110.472 284.168 111.209 284.168 111.954 284.957C111.209 284.957 110.465 284.957 109.728 284.957Z" fill="#020202"/>
<path d="M105.824 284.956C106.383 284.241 106.934 284.241 107.492 284.956C106.941 284.956 106.383 284.956 105.824 284.956Z" fill="#020202"/>
<path d="M195.985 227C196.543 227.365 197.102 227.73 197.653 228.102C196.127 228.222 196 229.636 195.382 230.582C194.034 232.63 193.051 234.923 191.257 236.666C187.876 235.891 185.508 236.993 183.713 240.076C182.425 242.303 180.169 243.114 177.451 243.286C169.967 243.747 162.461 243.941 155 244.827C153.63 244.991 151.739 245.609 150.845 244.321C150.167 243.345 151.597 242.124 152.096 241.037C155.73 233.069 158.962 224.968 160.987 216.419C161.352 214.893 162.119 214.312 163.928 214.178C172.484 213.545 181.055 213.187 189.589 212.152C192.098 211.847 194.66 211.452 197.229 211.467C198.569 211.475 198.77 211.72 198.561 213.217C198.159 216.166 196.715 218.593 195.345 221.036C194.228 223.039 194.012 224.729 195.516 226.516C195.456 226.896 195.62 227.045 195.985 227Z" fill="#9747FF"/>
<path d="M25.6873 117.005C25.6873 117.146 25.6873 117.288 25.6873 117.429C25.5532 117.31 25.4192 117.191 25.2852 117.079C25.4117 117.05 25.5532 117.027 25.6873 117.005Z" fill="#020202"/>
<path d="M87.9988 59.5039C87.9913 59.7347 87.9839 59.9656 87.9764 60.2039C87.8275 60.1145 87.686 60.0326 87.5371 59.9432C87.6935 59.7943 87.8499 59.6528 87.9988 59.5039Z" fill="#020202"/>
<path d="M90.2399 57.439C90.0388 57.5805 89.8378 57.722 89.6367 57.856C89.7261 57.5582 89.8378 57.2975 90.2399 57.439Z" fill="#020202"/>
<path d="M91.7909 115.782C97.8373 116.132 105.016 114.673 112.209 115.253C119.03 115.805 125.866 115.566 132.679 115.857C134.943 115.953 137.229 116.385 139.515 116.281C140.751 116.222 141.086 117.003 141.488 117.8C145.859 126.393 149.836 135.135 152.278 144.518C152.74 146.283 152.293 146.379 150.893 146.387C143.692 146.402 136.469 146.067 129.328 145.553C125.65 145.292 122.001 145.493 118.352 145.285C109.752 144.801 101.144 145.009 92.543 145.285C83.8083 145.56 75.0737 145.962 66.3465 146.379C64.3807 146.476 63.7999 146.156 64.403 143.959C66.8752 135.009 70.7027 126.639 74.761 118.344C76.3619 115.067 79.5862 116.385 82.0435 115.916C84.8136 115.38 87.7624 115.782 91.7909 115.782Z" fill="#575ED2"/>
<path d="M150.495 116.905C158.031 116.622 165.306 118.097 172.663 117.948C173.393 117.933 173.825 118.357 174.309 118.819C178.307 122.624 182.09 126.615 184.689 131.537C186.178 134.367 188.837 135.209 191.577 135.715C192.82 135.946 193.453 136.303 194.034 137.413C195.814 140.853 197.117 144.479 198.554 148.061C199.239 149.766 198.681 150.511 196.879 150.258C192.992 149.714 188.963 149.811 185.21 148.977C180.765 147.994 176.334 148.865 171.985 148.009C169.066 147.436 166.133 147.436 163.199 147.503C161.568 147.54 161.531 146.348 161.255 145.343C159.572 139.304 157.666 133.332 155.305 127.516C153.853 123.957 152.133 120.494 150.495 116.905Z" fill="#9747FF"/>
<path d="M17.5391 211.388C23.31 211.887 28.8352 211.983 34.3009 212.996C37.0039 213.495 39.7814 213.368 42.5068 213.555C45.9768 213.793 49.4543 214.612 52.9392 214.217C54.8083 214.009 55.3668 214.999 55.6348 216.392C56.3646 220.241 57.7645 223.868 58.9931 227.561C59.4101 228.82 59.7974 230.026 60.8771 230.793C62.7759 232.141 61.0707 234.337 62.3366 236.02C63.7291 237.882 64.3546 240.302 65.4045 242.439C66.2683 244.197 65.963 245.053 63.8482 244.889C58.8293 244.494 53.8105 244.137 48.7916 243.742C48.4565 243.712 47.9799 243.593 47.8236 243.355C45.6343 240.012 41.7845 238.746 38.8879 236.281C35.8349 233.682 33.3478 230.689 31.367 227.316C29.5129 224.166 27.1226 222.319 23.4292 222.669C22.0292 222.803 21.6867 221.999 21.2846 221.083C19.9517 217.993 18.5071 214.962 17.5391 211.388Z" fill="#9747FF"/>
<path d="M135.112 107.129C117.285 107.129 99.5779 107.129 81.7363 107.129C81.9076 105.588 83.2033 104.515 84.0298 103.175C87.8722 96.9646 92.7644 91.5511 97.1578 85.7578C97.7759 84.9387 98.6471 85.1323 99.4364 85.1248C105.274 85.1025 111.12 85.1621 116.958 85.0951C118.127 85.0802 118.834 85.5642 119.557 86.3237C123.287 90.2331 126.4 94.6413 129.736 98.8709C131.806 101.507 133.556 104.337 135.112 107.129Z" fill="#FF24BD"/>
<path d="M81.6406 254.419C99.6237 254.419 117.1 254.419 134.897 254.419C132.336 259.058 129.268 263.049 126.207 267.026C124.219 269.602 121.963 271.97 119.937 274.524C118.761 276.013 117.324 276.617 115.492 276.609C111.605 276.587 107.71 276.505 103.831 276.632C100.435 276.743 97.6802 276.453 95.2824 273.214C90.7625 267.108 85.9595 261.21 81.6406 254.419Z" fill="#FF24BD"/>
<path d="M191.6 126.788C186.365 118.195 179.723 111.68 171.442 106.683C179.514 102.297 185.509 96.0346 190.379 88.6329C191.332 87.1883 191.704 87.017 192.709 88.6404C197.058 95.6623 202.777 101.359 209.791 105.737C210.752 106.34 211.757 106.586 210.044 107.621C202.337 112.268 196.179 118.471 191.6 126.788Z" fill="#FFFCC7"/>
<path d="M109.214 58.4529C116.191 59.1976 122.737 60.7836 127.368 66.7854C129.483 69.5257 130.094 72.8319 131.36 75.8849C131.97 77.3668 131.151 78.655 129.208 78.4539C128.12 78.3422 126.966 78.2752 125.968 77.8806C121.761 76.2051 117.368 77.1434 113.079 76.7115C109.288 76.3317 105.476 76.3689 101.857 76.9646C97.8061 77.6348 93.5765 76.4806 89.6746 78.3944C88.647 78.9007 88.0364 78.0444 88.1853 76.9795C89.1608 69.9501 96.3391 60.3145 104.493 59.5177C106.101 59.3614 107.509 58.2295 109.214 58.4529Z" fill="#7D7D7D"/>
<path d="M150.876 215.14C150.474 215.319 149.99 215.356 149.535 215.379C139.408 215.758 129.281 216.213 119.147 216.466C113.971 216.592 108.781 216.294 103.599 216.287C99.8084 216.28 95.9586 216.875 92.2354 216.391C85.4517 215.513 78.6234 216.555 71.8844 215.468C69.8962 215.207 67.8708 215.587 65.8826 214.887C64.5795 214.433 63.6933 215.133 64.155 216.615C67.1038 226.101 70.7823 235.29 75.4289 244.077C75.7863 244.755 76.2777 245.522 77.3351 245.447C79.3605 245.298 81.3636 245.879 83.3295 245.916C93.0545 246.065 102.787 245.931 112.519 245.894C121.395 246.274 130.257 245.864 139.118 245.462C140.481 245.402 141.002 244.568 141.493 243.533C143.109 240.168 144.822 236.839 146.378 233.443C148.865 228.015 150.533 222.281 152.469 216.644C152.909 215.364 152.678 214.336 150.876 215.14Z" fill="#575ED2"/>
<path d="M39.0692 246.787C33.4621 250.004 29.024 254.271 25.6136 259.565C24.5338 261.248 23.8786 260.876 22.9254 259.551C19.5522 254.83 15.8067 250.458 10.5867 247.674C9.03044 246.847 9.99102 246.177 10.6686 245.775C14.645 243.444 17.7204 240.115 20.7213 236.727C21.6744 235.648 22.5382 234.434 23.1935 233.153C23.8488 231.865 24.3849 231.91 25.0476 232.997C28.5177 238.745 33.3653 243.101 39.0692 246.787Z" fill="#FFFCC7"/>
<path d="M84.5949 273.55C78.4516 272.001 72.5243 270.162 66.8576 267.466C61.8685 265.091 56.9241 262.626 52.5977 259.216C50.2819 257.391 48.0628 255.396 45.7619 253.519C45.5087 253.311 45.2407 252.901 45.2779 252.626C45.3524 251.993 45.9704 252.127 46.38 252.149C50.8552 252.432 55.3231 252.782 59.7984 253.035C62.1887 253.169 64.5938 253.214 66.9916 253.184C69.7244 253.154 71.5637 253.973 73.1423 256.602C76.6198 262.425 80.4398 268.055 84.5949 273.55Z" fill="#575ED2"/>
<path d="M172.464 252.028C160.371 262.602 147.288 269.594 131.784 273.742C135.381 268.537 138.516 263.995 141.658 259.452C142.075 258.857 142.641 258.313 142.879 257.65C144.339 253.652 147.25 252.728 151.204 253.168C155.322 253.622 159.604 253.16 163.521 252.371C166.388 251.805 168.957 252.416 172.464 252.028Z" fill="#575ED2"/>
<path d="M131.859 87.7002C137.429 88.9959 142.322 90.6564 147.02 92.7414C152.419 95.1391 157.609 98.006 162.486 101.387C163.536 102.116 164.564 102.69 163.373 104.12C163.164 104.365 163.194 104.819 163.149 105.184C162.62 109.414 162.553 109.786 158.391 108.967C154.75 108.252 151.093 108.885 147.46 108.118C145.844 107.776 144.995 107.076 144.362 105.989C140.735 99.7857 136.558 93.9626 131.859 87.7002Z" fill="#575ED2"/>
<path d="M57.4164 117.532C56.493 117.495 55.5697 117.442 54.6463 117.435C49.2328 117.39 43.8714 118.358 38.4802 118.433C36.0899 118.463 34.4517 119.192 33.0518 120.972C26.499 129.312 21.5843 138.553 17.8909 148.472C17.1165 150.549 18.4792 150.385 19.6557 150.214C24.831 149.477 24.9427 149.499 26.8862 153.602C30.3487 152.857 33.9528 153.371 37.393 152.418C38.6589 148.375 39.0983 148.092 43.2459 148.025C46.1351 147.98 48.9945 147.623 51.8241 146.997C53.5815 147.839 54.6538 147.742 55.2569 145.448C56.7686 139.744 58.6078 134.13 60.9087 128.686C62.5618 124.777 64.3118 120.92 66.1808 116.668C63.0235 117.323 60.1343 116.124 57.4164 117.532Z" fill="#9747FF"/>
<path d="M71.3024 92.3321C70.8482 92.3768 70.3344 92.3023 69.9471 92.4885C62.0763 96.3085 54.3842 100.441 47.7941 106.302C46.7293 107.247 44.8156 107.471 44.6592 109.667C50.661 109.25 56.5436 108.841 62.4263 108.431C65.107 108.945 67.6611 107.687 70.3493 107.903C71.7119 108.014 72.7172 106.815 72.8736 105.721C73.1417 103.844 74.4075 102.697 75.3085 101.275C75.2192 100.888 75.4426 100.754 75.7702 100.702C78.1382 96.1447 81.7348 92.414 84.7506 87.626C79.7689 88.8546 75.383 90.1429 71.3024 92.3321Z" fill="#575ED2"/>
<path d="M157.103 172.441C156.701 167.281 155.83 162.18 155.331 157.042C155.249 156.208 154.773 155.471 153.44 155.188C149.098 154.279 144.668 154.48 140.341 154.339C130.669 154.011 120.988 153.326 111.308 153.408C100.98 153.497 90.6516 154.078 80.3235 154.093C74.6047 154.101 68.9305 154.979 63.2191 154.726C62.1543 154.681 61.5139 154.979 61.2979 156.178C59.9948 163.438 59.414 170.766 59.1013 178.123C58.8109 185.011 59.63 191.846 60.2852 198.69C60.3448 199.918 60.6054 201.162 60.8661 202.309C61.3054 204.207 60.7693 207.536 64.6637 206.374C65.1924 206.717 65.6615 207.074 66.3838 207.067C75.1185 207 83.8382 208.02 92.543 208.027C103.035 208.042 113.542 208.191 124.056 207.752C133.602 207.35 143.156 206.821 152.71 206.56C154.415 206.516 155.048 205.868 155.227 204.572C155.904 199.822 156.791 195.063 156.977 190.283C157.208 184.34 157.565 178.398 157.103 172.441ZM87.8443 192.278C85.0222 195.525 81.2468 196.888 77.1439 196.337C72.8175 195.756 69.3549 193.447 67.6795 189.136C66.8976 187.125 68.238 183.417 70.3677 181.719C72.4377 180.074 74.6791 178.867 77.4939 179.188C78.5736 179.307 79.7278 179.411 80.6958 178.644C81.2022 176.73 80.2341 174.727 81.3511 172.784C82.4159 170.929 83.9722 170.565 85.6849 170.922C87.539 171.317 88.9911 172.53 89.1028 174.601C89.2443 177.125 89.4453 179.701 87.8667 181.958C89.5496 185.405 90.8006 188.883 87.8443 192.278ZM117.511 181.69C115.083 184.556 112.023 186.09 108.344 185.904C104.815 186.008 102.015 184.765 99.7065 182.315C97.7034 180.193 97.4428 178.063 99.0288 176.239C100.086 175.018 103.66 174.697 105.105 176.097C107.585 178.502 109.61 177.728 111.777 175.792C113.713 174.057 115.701 174.682 117.407 176.105C119.127 177.542 119.089 179.828 117.511 181.69ZM144.832 194.505C137.914 198.392 129.782 195.726 127.347 189.002C126.275 186.046 128.457 184.37 129.254 182.136C127.578 180.304 126.826 175.114 127.936 172.977C128.904 171.108 130.594 170.475 132.471 170.915C134.444 171.376 135.732 172.732 135.903 174.913C136.015 176.343 135.486 177.855 136.447 179.173C139.552 179.277 142.672 178.83 145.502 180.878C150.722 184.668 150.469 191.34 144.832 194.505Z" fill="#FFFCC7"/>
<path d="M52.8667 203.56C51.2658 197.32 51.2955 190.901 50.7892 184.549C50.1637 176.82 51.5264 169.143 51.9061 161.428C52.8444 160.051 52.4423 158.375 52.8816 156.863C53.2688 155.553 52.07 155.851 51.2881 155.918C49.836 155.858 48.451 155.858 46.9692 156.238C42.062 157.511 39.5153 156.379 37.3857 152.418C33.9454 153.364 30.3414 152.857 26.8788 153.602C26.3278 156.283 24.7864 157.697 21.994 158.181C20.4451 158.45 18.9186 158.665 17.3772 158.591C15.3369 158.487 14.287 159.663 14.0636 161.361C13.371 166.596 12.7009 171.846 12.3807 177.11C12.12 181.422 12.2541 185.748 12.8498 190.074C13.3562 193.745 13.587 197.439 14.4806 201.065C14.7859 202.286 15.2103 202.443 16.223 202.584C19.6558 203.046 23.1184 203.344 26.5437 203.813C29.3957 204.208 32.2849 203.776 35.0401 204.379C40.26 205.526 45.6139 205.034 50.8339 205.928C52.8667 206.27 53.2986 205.22 52.8667 203.56Z" fill="#FF24BD"/>
<path d="M195.987 254.359C195.622 254.404 195.458 254.255 195.525 253.883C195.682 254.047 195.831 254.203 195.987 254.359Z" fill="#020202"/>
<path d="M75.303 101.283C75.2137 100.896 75.437 100.762 75.7647 100.71C75.6158 100.904 75.4594 101.09 75.303 101.283Z" fill="#020202"/>
<path d="M136.438 179.174C139.544 179.278 142.664 178.831 145.493 180.879C150.721 184.669 150.467 191.341 144.83 194.506C137.913 198.393 129.781 195.727 127.346 189.003C126.274 186.047 128.456 184.371 129.245 182.137C133.102 183.165 133.974 182.808 136.438 179.174Z" fill="#EF5D84"/>
<path d="M87.8581 181.959C89.5484 185.407 90.7994 188.884 87.8432 192.28C85.021 195.526 81.2457 196.889 77.1427 196.338C72.8163 195.757 69.3538 193.449 67.6783 189.137C66.8964 187.127 68.2368 183.419 70.3665 181.721C72.4366 180.075 74.6779 178.869 77.4927 179.189C78.5724 179.308 79.7266 179.412 80.6946 178.646C81.4839 182.719 83.3381 183.575 87.8581 181.959Z" fill="#EF5D84"/>
<path d="M108.35 185.896C104.821 186 102.021 184.757 99.7126 182.307C97.7095 180.184 97.4489 178.055 99.035 176.23C100.092 175.009 103.667 174.689 105.111 176.089C107.591 178.494 109.616 177.72 111.783 175.784C113.719 174.049 115.707 174.674 117.413 176.096C119.133 177.541 119.096 179.827 117.524 181.681C115.082 184.555 112.029 186.089 108.35 185.896Z" fill="black"/>
<path d="M136.438 179.174C133.973 182.8 133.109 183.158 129.252 182.138C127.577 180.306 126.825 175.116 127.934 172.979C128.902 171.109 130.593 170.477 132.469 170.916C134.442 171.378 135.731 172.733 135.902 174.915C136.006 176.344 135.477 177.856 136.438 179.174Z" fill="black"/>
<path d="M87.8568 181.959C83.3368 183.575 81.4752 182.711 80.6934 178.638C81.1997 176.731 80.2317 174.721 81.3486 172.777C82.4135 170.923 83.9698 170.558 85.6824 170.916C87.5366 171.31 88.9886 172.524 89.1003 174.594C89.2418 177.126 89.4354 179.71 87.8568 181.959Z" fill="black"/>
<path d="M205.898 181.658C205.813 186.841 204.7 193.205 203.912 199.622C203.479 203.105 200.899 202.676 199.022 202.879C191.76 203.669 184.412 203.797 177.181 204.79C173.589 205.279 169.95 204.699 166.396 205.715C164.148 206.354 163.174 205.279 163.754 203.007C165.616 195.762 165.832 188.308 165.809 180.981C165.786 173.18 165.847 165.236 163.762 157.533C163.406 156.216 163.507 154.952 165.67 155.148C171.897 155.712 178.139 156.088 184.366 156.72C187.279 157.021 190.222 157.382 193.173 157.42C196.202 157.465 199.184 157.864 202.143 158.481C202.97 158.654 203.425 158.751 203.603 159.744C204.847 166.567 205.89 173.405 205.898 181.658Z" fill="#FF24BD"/>
</svg>
