<svg width="128" height="131" viewBox="0 0 128 131" fill="none" xmlns="http://www.w3.org/2000/svg">
<path d="M116.58 45.9185L84.3771 65.8745L80.4219 59.5927L115.839 37.562L126.12 39.9762L124.4 47.3033L117.713 45.7332L117.109 45.5912L116.58 45.9185ZM37.3238 90.9598L37.2056 90.4665L36.8122 90.1462L20.0463 76.4935C18.8368 75.4057 18.4994 73.9746 18.7975 72.7048C19.0962 71.4329 20.0378 70.3 21.6094 69.8657L67.3873 59.0011L67.5018 58.974L67.6107 58.9293C67.9421 58.7932 68.2463 58.8249 69.1241 59.031C70.0399 59.246 70.8345 59.7894 71.4791 60.7686L79.2885 73.3707C79.7893 74.2953 79.967 75.1657 79.8036 76.0431L78.9774 77.6474L48.9801 113.678C47.9829 114.784 46.5579 115.148 45.2093 114.831C43.8917 114.522 42.7505 113.54 42.4008 112.148C42.4003 112.146 42.3998 112.144 42.3993 112.142L37.3238 90.9598ZM53.7712 68.0415L52.9924 66.7848L51.7246 67.5453L47.3198 70.1873L46.0147 70.9701L46.8164 72.2638L57.9904 90.2954L58.792 91.5891L60.0739 90.7688L64.4003 88.0002L65.6456 87.2033L64.8668 85.9466L53.7712 68.0415ZM44.8503 73.5697L44.0601 72.2947L42.7851 73.0848L38.293 75.8685L37.018 76.6586L37.8081 77.9337L48.9037 95.8388L49.6938 97.1138L50.9689 96.3237L55.461 93.54L56.736 92.7499L55.9459 91.4748L44.8503 73.5697Z" fill="#FF4E4E" stroke="#272727" stroke-width="3"/>
<path d="M65.9943 20.3649C67.4675 19.2667 69.0225 18.2845 70.8626 18.0205C71.6599 17.907 71.623 17.5321 71.623 16.9856C71.6177 12.0223 71.6177 7.05626 71.6256 2.0929C71.6256 1.71537 71.557 1.34047 71.7999 0.960301C72.151 0.411163 72.5074 -0.124775 73.2334 0.0257102C74.0413 0.192036 74.5007 0.775495 74.5667 1.59656C74.6168 2.21698 74.5799 2.84532 74.5799 3.47102C74.5799 8.00933 74.6036 12.545 74.5535 17.0833C74.5455 17.7671 74.8228 17.9968 75.3534 18.1209C79.7465 19.1505 82.347 21.9675 83.4611 26.255C83.6222 26.8727 83.7621 27.5275 83.7304 28.1558C83.6987 28.8079 84.0446 29.0508 84.5198 29.1934C87.944 30.2177 91.0197 31.9417 93.9132 33.9851C94.4914 34.3943 94.8056 34.3283 95.2359 33.9957C96.915 32.6994 98.3116 31.1576 99.3386 29.2858C99.9511 28.1717 101.707 27.2714 102.755 27.7017C103.328 27.9367 103.94 28.3697 104.289 28.9901C105.857 31.778 108.043 33.9297 110.818 35.5322C112.251 36.3612 112.375 38.4838 111.222 39.7458C110.403 40.6382 109.249 41.0553 108.376 41.8473C107.122 42.9799 105.87 44.1204 104.965 45.5778C104.753 45.9157 104.748 46.1903 104.936 46.4991C105.54 47.4813 106.192 48.5267 106.551 49.5432C107.325 51.7476 108.196 53.9547 108.6 56.2754C109.099 59.1452 109.521 62.0334 109.4 64.956C109.207 69.6184 108.347 74.1488 106.427 78.4363C106.182 78.9828 105.997 79.5768 105.648 80.0467C105.287 80.5325 104.838 81.0499 104.08 80.8757C103.882 80.7463 103.687 80.617 103.489 80.485C103.433 80.4295 103.381 80.3741 103.325 80.316C102.792 79.6824 102.866 79.0857 103.264 78.3729C103.748 77.5043 104.26 76.6436 104.405 75.6008C104.479 75.0701 104.408 74.983 103.932 74.9804C103.022 74.9751 102.113 75.115 101.224 75.2233C98.1981 75.5902 95.1593 75.717 92.1259 75.9414C91.4817 75.9889 91.2124 76.1922 91.083 76.736C90.3649 79.7642 89.2192 82.6393 87.9308 85.4642C87.7539 85.8523 87.247 86.2826 87.4872 86.6284C87.8041 87.0852 88.4746 86.8661 88.9604 86.808C91.6058 86.4938 94.267 86.4252 96.9203 86.2615C97.8839 86.2007 98.6839 85.913 99.1406 85.1236C99.7742 84.0306 100.616 83.6372 101.815 83.9144C102.554 85.0312 102.533 85.4774 101.678 86.5783C98.5862 90.5569 94.8769 93.8174 90.4837 96.3044C87.4292 98.0336 84.2135 99.285 80.792 100.08C79.1578 100.46 77.5236 100.697 75.8656 100.861C75.797 100.869 75.7362 100.975 75.6729 101.035C75.0155 101.035 74.3581 101.035 73.7007 101.035C73.4367 100.756 73.1753 100.756 72.9113 101.035C72.6473 101.035 72.386 101.035 72.122 101.035C71.9239 100.782 71.7286 100.782 71.5306 101.035C71.2006 101.035 70.8732 101.035 70.5432 101.035C70.2792 100.779 70.0178 100.682 69.7538 101.035C69.4238 101.035 69.0964 101.035 68.7664 101.035C67.6892 100.837 66.6121 100.639 65.5323 100.441C61.5616 99.7127 57.8338 98.3161 54.3172 96.3492C52.0467 95.0794 49.9426 93.5666 48.0074 91.8241C47.5586 91.4202 47.2629 91.4888 46.8273 91.9931C46.0432 92.9013 45.3884 93.894 44.6783 94.8497C43.5589 96.3545 41.3861 96.4258 40.4488 94.8576C39.1394 92.669 37.4523 90.974 35.2505 89.6698C33.5081 88.6402 33.6242 86.2958 35.364 85.2002C36.7184 84.3474 37.9064 83.3204 39.0021 82.1641C39.501 81.6387 39.6146 81.1952 39.2687 80.4718C37.587 76.9552 36.3752 73.2881 35.797 69.4072C35.4142 66.8436 35.2743 64.2722 35.4538 61.7166C35.7468 57.5373 36.7078 53.5007 38.35 49.6065C39.4245 47.0588 40.8818 44.762 42.3365 42.4466C42.5319 42.1351 42.854 41.9054 43.118 41.6361C43.118 41.5859 43.118 41.5358 43.118 41.4856C44.3377 39.7775 45.8848 38.3677 47.3632 36.8998C49.4832 34.7956 51.8989 33.0875 54.5284 31.6803C56.7276 30.5029 58.9849 29.4468 61.4138 28.8158C62.0527 28.6495 62.2137 28.3195 62.2982 27.6357C62.5939 25.2544 63.2513 22.9865 65.2076 21.347C65.2102 21.2652 65.2128 21.1834 65.2155 21.0989C65.3528 20.8481 65.5429 20.6527 65.7963 20.5181C65.8517 20.4653 65.923 20.4151 65.9943 20.3649ZM56.1336 38.4469C57.084 38.629 57.9896 38.1829 58.9426 38.2594C59.4258 38.299 59.7822 37.874 59.8376 37.4859C59.9327 36.8206 60.3841 36.414 60.7009 35.9098C60.7564 35.8411 60.8092 35.7751 60.8646 35.7065C61.7042 34.0907 62.9793 32.7681 64.0486 31.0705C62.2824 31.5008 60.7273 31.9576 59.2806 32.7337C59.1195 32.7496 58.9374 32.7232 58.8001 32.7892C56.0095 34.1435 53.2823 35.6088 50.9458 37.6865C50.5683 38.0218 49.8898 38.101 49.8343 38.8799C51.9596 38.7346 54.0453 38.5894 56.1336 38.4469ZM52.3715 52.1172C52.9945 52.4156 53.3747 52.3813 53.5885 51.5681C54.1245 49.5458 54.7766 47.5552 55.5924 45.6253C56.1785 44.2392 56.7989 42.8717 57.4616 41.3642C56.3448 41.5965 55.3178 41.1715 54.3568 41.6678C54.0294 41.6546 53.7021 41.6361 53.3747 41.6335C51.4554 41.6176 49.5545 41.9608 47.6431 41.9872C46.7956 41.9978 46.2148 42.2565 45.7185 42.8875C43.3952 45.8444 41.6527 49.1207 40.3432 52.6373C40.0687 53.3739 40.5518 53.3158 40.9689 53.2551C42.8038 52.9938 42.8434 53.0017 43.5325 54.4564C43.3371 55.4068 42.7906 55.9084 41.8006 56.08C41.2514 56.1751 40.7102 56.2516 40.1637 56.2252C39.4403 56.1883 39.0681 56.6054 38.9889 57.2073C38.7433 59.0633 38.5057 60.9246 38.3922 62.7911C38.2998 64.3197 38.3473 65.8536 38.5585 67.3875C38.7381 68.6891 38.8199 69.9985 39.1367 71.2843C39.245 71.7172 39.3954 71.7727 39.7545 71.8228C40.9716 71.9865 42.1992 72.0921 43.4137 72.2585C44.4248 72.3984 45.4492 72.2453 46.426 72.4591C48.2767 72.8657 50.1749 72.6914 52.0256 73.0082C52.7437 73.1323 52.8968 72.7574 52.7437 72.1687C52.1761 69.9563 52.1867 67.6806 52.0071 65.4286C51.7854 62.6882 52.2685 59.9662 52.4031 57.2311C52.7358 56.7427 52.5932 56.1487 52.749 55.6127C52.8863 55.1481 52.4612 55.2537 52.184 55.2774C51.6692 55.2563 51.1781 55.2563 50.6528 55.391C48.913 55.8424 48.01 55.4411 47.255 54.0366C47.7038 52.603 47.8596 52.5027 49.3301 52.4789C50.3544 52.4657 51.3682 52.339 52.3715 52.1172ZM59.4865 76.3928C58.7816 76.3004 58.0635 76.4351 57.3586 76.1869C56.8966 76.0259 56.5824 76.274 56.7461 76.7994C57.7916 80.1629 59.0958 83.4207 60.7432 86.536C60.8699 86.7763 61.0441 87.0482 61.419 87.0218C62.1371 86.969 62.8473 87.1749 63.5443 87.1881C66.9923 87.2409 70.4429 87.1934 73.8934 87.1802C77.0404 87.3149 80.1821 87.1697 83.3238 87.0271C83.807 87.006 83.9918 86.7103 84.166 86.3433C84.7389 85.15 85.3461 83.9699 85.8979 82.766C86.7797 80.8414 87.3711 78.8085 88.0575 76.81C88.2133 76.3559 88.1314 75.9915 87.4925 76.2767C87.35 76.34 87.1784 76.3532 87.0173 76.3611C83.4268 76.4958 79.8363 76.6568 76.2431 76.7466C74.4083 76.7915 72.5681 76.6859 70.7306 76.6832C69.3868 76.6806 68.0219 76.8918 66.7019 76.7202C64.2994 76.4087 61.8784 76.7783 59.4865 76.3928ZM55.3706 70.4421C55.3917 70.8777 55.4841 71.3186 55.5765 71.7252C55.7323 72.3984 55.5422 73.5785 56.9256 73.1666C57.1131 73.2881 57.2794 73.4148 57.5355 73.4122C60.6323 73.3884 63.7238 73.7501 66.8101 73.7527C70.53 73.758 74.2551 73.8108 77.9829 73.6551C81.3675 73.5125 84.7548 73.3251 88.142 73.2326C88.7466 73.2168 88.971 72.9871 89.0343 72.5277C89.2746 70.8434 89.5888 69.1564 89.6548 67.4614C89.7366 65.3599 89.8633 63.2558 89.6996 61.1411C89.5571 59.3115 89.2482 57.503 89.0713 55.6814C89.0423 55.3857 88.8733 55.1243 88.4007 55.024C86.8615 54.7019 85.2907 54.7732 83.7568 54.723C80.3273 54.6068 76.8952 54.364 73.4631 54.393C69.8013 54.4247 66.1395 54.6306 62.4777 54.6359C60.4501 54.6385 58.4384 54.9501 56.4134 54.8603C56.0359 54.8445 55.8089 54.9501 55.7323 55.3751C55.2703 57.9492 55.0644 60.547 54.9535 63.1554C54.8479 65.5922 55.1356 68.0158 55.3706 70.4421ZM66.5434 41.05C65.1152 41.05 64.0697 40.9048 63.0876 41.0922C62.2163 41.2586 61.0732 40.7939 60.5056 41.9529C59.0667 44.894 57.7097 47.8614 56.8332 51.0348C56.6167 51.8136 56.8227 51.9272 57.5223 51.8928C60.6165 51.745 63.7133 51.6024 66.8101 51.5047C69.8594 51.4071 72.9113 51.3331 75.9606 51.5047C77.2543 51.5787 78.5479 51.5074 79.8521 51.5998C82.3866 51.782 84.9448 51.9008 87.4978 51.8955C87.9968 51.8955 88.1525 51.8612 87.9889 51.2328C87.1229 47.9037 85.7131 44.8042 84.1634 41.7602C84.0208 41.4777 83.8994 41.2031 83.4638 41.2216C82.6533 41.2586 81.8427 41.1081 81.0402 41.0711C78.6245 40.9655 76.2009 41.0526 73.7826 40.8573C71.2296 40.6566 68.6872 41.1767 66.5434 41.05ZM106.462 64.5415C106.456 61.648 106.1 59.2481 105.685 56.8509C105.625 56.4998 105.469 56.4655 105.186 56.4074C104.173 56.1935 103.156 56.051 102.121 56.0351C101.113 56.0193 100.107 55.8926 99.1115 55.7896C96.9836 55.5652 94.8504 55.4358 92.7225 55.2378C91.9807 55.1692 91.9464 55.6127 92.0704 56.0747C92.7806 58.7782 92.7621 61.5661 92.7701 64.3039C92.7753 66.8727 92.7014 69.4917 92.0678 72.034C91.8671 72.8314 92.2024 73.2089 92.9707 72.9845C94.1851 72.6281 95.426 72.8314 96.6563 72.6598C99.1274 72.3113 101.638 72.269 104.12 71.9892C104.761 71.9179 105.643 72.0684 105.791 70.846C106.052 68.5967 106.433 66.3605 106.462 64.5415ZM87.3579 41.4487C87.9387 42.7212 88.5486 43.9488 89.0634 45.2161C89.9003 47.2753 90.5762 49.3927 91.1728 51.5364C91.2705 51.8902 91.2837 52.3153 91.8619 52.3021C92.9021 52.2757 93.9423 52.2783 94.9772 52.4816C96.5163 52.7826 98.0898 52.4737 99.666 52.8248C100.997 53.1205 102.425 53.0862 103.803 53.2789C104.442 53.3686 104.637 53.1046 104.397 52.5001C103.89 51.2302 103.428 49.9445 102.794 48.7247C102.591 48.3314 102.364 48.2046 101.923 48.1228C100.952 47.9406 100.009 47.6423 99.4812 46.6417C98.5598 44.894 97.2186 43.4815 95.8009 42.1324C95.6293 41.9688 95.4788 41.8183 95.2174 41.8236C92.609 41.8684 90.027 41.3483 87.3579 41.4487ZM40.2192 74.9461C40.5597 76.2133 41.0745 77.2878 41.5445 78.3808C41.6844 78.7055 41.8085 78.9907 42.3048 78.9432C43.6143 78.8191 44.4618 79.4738 45.1192 80.5906C45.8214 81.7865 46.7006 82.8452 47.7856 83.7692C48.8126 84.6457 50.1776 85.0946 50.9537 86.2773C51.0092 86.3618 51.1755 86.4067 51.297 86.4146C53.0764 86.5545 54.8558 86.6812 56.6352 86.8212C57.385 86.8792 57.4932 86.5756 57.187 85.9526C56.8174 85.1949 56.593 84.3369 56.0993 83.6768C55.6531 83.0802 56.255 82.3013 55.5818 81.8235C55.199 81.5516 55.0644 81.1239 54.9139 80.6777C54.4783 79.3682 53.9819 78.0825 53.7232 76.7176C53.6308 76.2239 53.4301 75.8727 52.7675 75.9467C51.5319 76.0839 50.299 75.7962 49.0687 75.7117C48.1024 75.6457 47.1177 75.6906 46.1593 75.5137C44.2268 75.1573 42.2652 75.123 40.2192 74.9461ZM81.9035 37.9822C81.3517 36.9922 80.7313 35.989 79.9947 35.0544C78.8119 33.5548 77.7084 31.9919 76.3857 30.6058C76.1296 30.3365 75.8788 30.1676 75.4643 30.1702C73.3945 30.194 71.3246 30.1729 69.2522 30.1808C68.9723 30.1808 68.6661 30.1148 68.4443 30.4052C66.8893 32.4592 65.1548 34.3785 63.7898 36.5803C63.4968 37.0556 63.0374 37.4357 62.9767 37.9822C69.3076 37.9822 75.5857 37.9822 81.9035 37.9822ZM62.945 90.2031C64.4763 92.6109 66.1791 94.7018 67.7843 96.8667C68.6344 98.0151 69.6112 98.1181 70.8151 98.0785C72.1932 98.0336 73.5714 98.0627 74.9495 98.0706C75.5989 98.0732 76.1085 97.8594 76.5256 97.3314C77.2411 96.4258 78.0437 95.5863 78.7486 94.6728C79.8336 93.263 80.9214 91.8479 81.8295 90.2031C75.5171 90.2031 69.3208 90.2031 62.945 90.2031ZM101.931 44.952C103.555 42.0031 105.741 39.8039 108.468 38.1538C109.078 37.7842 108.721 37.6971 108.378 37.4859C105.891 35.9362 103.864 33.9139 102.322 31.4243C101.965 30.8487 101.833 30.9094 101.496 31.4216C99.7716 34.0485 97.6437 36.2662 94.7818 37.8212C97.7176 39.5953 100.075 41.9054 101.931 44.952ZM72.7213 20.724C72.1167 20.6448 71.6177 21.0461 71.0527 21.1015C68.1592 21.384 65.6141 24.8003 65.2709 27.2925C65.2181 27.6701 65.4346 27.9737 65.7989 27.7941C67.1824 27.1156 68.6819 27.5248 70.1181 27.2872C71.3986 27.076 72.7529 27.0628 74.0967 27.1975C75.6148 27.348 77.1751 27.018 78.6667 27.612C79.0205 27.7519 79.4271 27.7757 79.8152 27.8153C80.5042 27.8865 80.7946 27.4298 80.5781 26.9044C80.132 25.822 79.9155 24.6524 79.1631 23.6782C77.5156 21.5503 75.195 20.988 72.7213 20.724ZM47.8516 87.497C45.832 86.1902 44.1133 84.6457 42.883 82.6076C42.6507 82.2221 42.4579 82.2063 42.2256 82.663C41.9959 83.1171 41.6897 83.5475 41.3491 83.9303C40.2852 85.1315 39.1948 86.3116 37.785 87.138C37.5447 87.2779 37.2042 87.5182 37.756 87.8112C39.6067 88.7986 40.9346 90.3457 42.1306 92.0221C42.4659 92.4921 42.6982 92.6241 43.0836 92.0274C44.2875 90.1503 45.861 88.6376 47.8516 87.497ZM63.9931 96.9855C62.5226 95.0345 61.1656 93.0386 59.9327 90.9793C59.373 90.0474 58.7235 89.7569 57.752 89.7675C56.9019 89.7781 56.0491 89.7622 55.2016 89.7147C53.6149 89.6249 52.0309 89.5009 50.4442 89.4005C50.299 89.3926 50.0799 89.3451 50.0535 89.5695C50.0429 89.6698 50.1353 89.815 50.2251 89.8863C51.0382 90.5516 51.8276 91.2592 52.6487 91.906C54.1826 93.1151 55.9356 93.9864 57.7044 94.8312C59.7135 95.7869 61.8151 96.4364 63.9931 96.9855ZM95.1461 89.3557C93.9027 89.4903 92.9918 89.2738 91.9728 89.4797C90.5841 89.7596 89.066 89.9233 87.6061 89.7622C86.2042 89.6065 85.1719 89.9338 84.6544 91.3516C84.57 91.5865 84.3667 91.7766 84.2215 91.9905C83.1073 93.6009 81.9959 95.2114 80.7207 97.0568C86.22 95.5836 90.8586 93.1072 95.1461 89.3557ZM80.7498 31.0942C82.4156 33.3146 83.8967 35.3791 85.1825 37.5783C85.4069 37.9637 85.7078 38.2146 86.2807 38.3334C87.5717 38.6053 88.8654 38.3809 90.1564 38.6343C91.6322 38.9221 91.6586 38.7927 91.8434 37.2932C91.8592 37.1638 91.8487 37.0028 91.9226 36.9156C92.345 36.4087 91.9807 36.2055 91.6084 35.9467C89.8792 34.7481 88.039 33.7317 86.125 32.8816C84.4591 32.1424 82.7245 31.5536 80.7498 31.0942Z" fill="#272727"/>
<path d="M69.7461 101.03C70.0101 100.676 70.2715 100.774 70.5355 101.03C70.2715 101.03 70.0075 101.03 69.7461 101.03Z" fill="#495059"/>
<path d="M72.9033 101.03C73.1673 100.75 73.4287 100.75 73.6927 101.03C73.4287 101.03 73.1647 101.03 72.9033 101.03Z" fill="#020202"/>
<path d="M71.5195 101.03C71.7175 100.777 71.9129 100.777 72.1109 101.03C71.9155 101.03 71.7175 101.03 71.5195 101.03Z" fill="#020202"/>
<path d="M103.486 80.4823C103.684 80.6117 103.882 80.7411 104.077 80.8731C103.536 80.9153 103.491 81.4169 103.272 81.7522C102.794 82.4782 102.445 83.2914 101.809 83.9092C100.611 83.6346 99.771 84.0253 99.1348 85.1183C98.678 85.9077 97.8781 86.1955 96.9144 86.2562C94.2612 86.4199 91.5999 86.4885 88.9546 86.8027C88.4688 86.8608 87.7982 87.0799 87.4814 86.6232C87.2412 86.2773 87.7481 85.8444 87.925 85.4589C89.2133 82.634 90.3591 79.7616 91.0772 76.7308C91.2066 76.1896 91.4785 75.9836 92.12 75.9361C95.1535 75.7117 98.1922 75.585 101.218 75.218C102.107 75.1098 103.016 74.9698 103.927 74.9751C104.402 74.9778 104.473 75.0649 104.399 75.5955C104.257 76.641 103.744 77.5017 103.259 78.3676C102.863 79.0778 102.786 79.6771 103.319 80.3107C103.298 80.4454 103.356 80.4982 103.486 80.4823Z" fill="#9747FF"/>
<path d="M43.1074 41.483C43.1074 41.5331 43.1074 41.5833 43.1074 41.6335C43.0599 41.5912 43.0124 41.549 42.9648 41.5094C43.0097 41.4988 43.0599 41.4909 43.1074 41.483Z" fill="#020202"/>
<path d="M65.1998 21.0963C65.1972 21.1781 65.1945 21.2599 65.1919 21.3444C65.1391 21.3127 65.0889 21.2837 65.0361 21.252C65.0916 21.1992 65.147 21.1491 65.1998 21.0963Z" fill="#020202"/>
<path d="M65.9941 20.3649C65.9228 20.4151 65.8516 20.4653 65.7803 20.5128C65.812 20.4072 65.8516 20.3148 65.9941 20.3649Z" fill="#020202"/>
<path d="M66.5437 41.05C68.6875 41.1741 71.2325 40.6566 73.7828 40.8625C76.2012 41.0579 78.6248 40.9734 81.0404 41.0764C81.843 41.1107 82.6535 41.2638 83.464 41.2269C83.9023 41.2058 84.0211 41.483 84.1637 41.7655C85.7134 44.8121 87.1232 47.9116 87.9891 51.2381C88.1528 51.8638 87.9944 51.8981 87.4981 51.9007C84.9451 51.906 82.3842 51.7872 79.8524 51.6051C78.5482 51.5127 77.2546 51.5839 75.9609 51.51C72.9116 51.3384 69.8597 51.4123 66.8104 51.51C63.7136 51.6077 60.6167 51.7503 57.5226 51.8981C56.8256 51.9324 56.6196 51.8189 56.8335 51.0401C57.71 47.8667 59.067 44.8992 60.5059 41.9582C61.0735 40.7965 62.2166 41.2638 63.0879 41.0975C64.07 40.9074 65.1154 41.05 66.5437 41.05Z" fill="#575ED2"/>
<path d="M87.3574 41.4486C90.0292 41.3483 92.6086 41.871 95.217 41.8182C95.4757 41.8129 95.6288 41.9634 95.8004 42.1271C97.2181 43.4762 98.5593 44.8913 99.4807 46.6364C100.009 47.6396 100.951 47.9379 101.923 48.1175C102.364 48.1993 102.588 48.326 102.794 48.7194C103.425 49.9391 103.887 51.2249 104.397 52.4947C104.639 53.0993 104.441 53.3633 103.803 53.2736C102.424 53.0808 100.996 53.1152 99.6655 52.8195C98.0894 52.471 96.5185 52.7799 94.9767 52.4763C93.9418 52.273 92.9016 52.273 91.8614 52.2967C91.2832 52.3099 91.27 51.8875 91.1723 51.5311C90.5757 49.39 89.8998 47.2726 89.0629 45.2107C88.5481 43.9488 87.9382 42.7211 87.3574 41.4486Z" fill="#9747FF"/>
<path d="M40.2188 74.946C42.2648 75.1229 44.2238 75.1573 46.1616 75.5163C47.1199 75.6932 48.1047 75.6483 49.071 75.7143C50.3012 75.7988 51.5342 76.0892 52.7697 75.9493C53.4324 75.8754 53.6304 76.2265 53.7254 76.7202C53.9842 78.0851 54.4805 79.3708 54.9161 80.6803C55.064 81.1265 55.2012 81.5542 55.5841 81.8261C56.2573 82.304 55.6527 83.0828 56.1015 83.6794C56.5952 84.3395 56.817 85.1975 57.1892 85.9552C57.4955 86.5783 57.3872 86.8819 56.6374 86.8238C54.858 86.6839 53.0786 86.5571 51.2992 86.4172C51.1804 86.4067 51.0114 86.3644 50.956 86.2799C50.1798 85.0945 48.8149 84.6457 47.7879 83.7719C46.7054 82.8505 45.8237 81.7891 45.1214 80.5932C44.464 79.4764 43.6165 78.8217 42.3071 78.9458C41.8107 78.9933 41.6893 78.7082 41.5467 78.3834C41.0741 77.2878 40.562 76.2133 40.2188 74.946Z" fill="#9747FF"/>
<path d="M81.9036 37.9822C75.5833 37.9822 69.3051 37.9822 62.9795 37.9822C63.0402 37.4357 63.4996 37.0556 63.7926 36.5804C65.1549 34.3785 66.8895 32.4592 68.4471 30.4052C68.6662 30.1148 68.9751 30.1834 69.255 30.1808C71.3248 30.1729 73.3973 30.194 75.4671 30.1702C75.8816 30.1649 76.1324 30.3365 76.3885 30.6058C77.7112 31.9919 78.8147 33.5548 79.9975 35.0544C80.7314 35.989 81.3519 36.9922 81.9036 37.9822Z" fill="#FF24BD"/>
<path d="M62.9453 90.2031C69.3211 90.2031 75.5174 90.2031 81.8272 90.2031C80.919 91.8479 79.8313 93.263 78.7462 94.6728C78.0413 95.5863 77.2414 96.4258 76.5233 97.3314C76.1061 97.8594 75.5966 98.0732 74.9471 98.0706C73.569 98.0627 72.1883 98.0336 70.8128 98.0785C69.6089 98.1181 68.6321 98.0151 67.782 96.8667C66.1794 94.7018 64.4766 92.6109 62.9453 90.2031Z" fill="#FF24BD"/>
<path d="M101.931 44.9521C100.075 41.9054 97.72 39.5953 94.7842 37.8238C97.646 36.2688 99.7713 34.0485 101.498 31.4243C101.836 30.9121 101.968 30.8514 102.324 31.4269C103.866 33.9165 105.894 35.9362 108.381 37.4885C108.721 37.7024 109.078 37.7895 108.47 38.1565C105.738 39.8039 103.555 42.0031 101.931 44.9521Z" fill="#FFFCC7"/>
<path d="M72.7213 20.724C75.1951 20.988 77.5157 21.5503 79.1578 23.6783C79.9076 24.6498 80.1241 25.822 80.5729 26.9044C80.7894 27.4298 80.499 27.8865 79.8099 27.8153C79.4245 27.7757 79.0153 27.7519 78.6615 27.612C77.1698 27.018 75.6122 27.3506 74.0915 27.1975C72.7477 27.0628 71.396 27.076 70.1129 27.2872C68.6767 27.5249 67.1771 27.1156 65.7937 27.7941C65.4294 27.9737 65.2129 27.6701 65.2657 27.2925C65.6115 24.8003 68.1566 21.384 71.0475 21.1015C71.6177 21.0461 72.1167 20.6448 72.7213 20.724Z" fill="#7D7D7D"/>
<path d="M87.4925 76.2767C87.3499 76.34 87.1783 76.3532 87.0173 76.3611C83.4267 76.4958 79.8362 76.6568 76.2431 76.7466C74.4082 76.7915 72.5681 76.6859 70.7306 76.6832C69.3868 76.6806 68.0218 76.8918 66.7018 76.7202C64.2967 76.4087 61.8757 76.7783 59.4864 76.3928C58.7815 76.3004 58.0634 76.4351 57.3585 76.1869C56.8965 76.0259 56.5823 76.274 56.746 76.7994C57.7915 80.1629 59.0957 83.4207 60.7431 86.536C60.8698 86.7763 61.0441 87.0482 61.419 87.0218C62.1371 86.969 62.8473 87.1749 63.5442 87.1881C66.9922 87.2409 70.4428 87.1934 73.8934 87.1802C77.0404 87.3149 80.1821 87.1697 83.3238 87.0271C83.8069 87.006 83.9917 86.7103 84.166 86.3433C84.7389 85.15 85.3461 83.9699 85.8979 82.766C86.7796 80.8414 87.371 78.8085 88.0574 76.81C88.2132 76.3559 88.1314 75.9915 87.4925 76.2767Z" fill="#575ED2"/>
<path d="M47.8517 87.497C45.8638 88.6376 44.2903 90.1503 43.0811 92.0274C42.6983 92.6241 42.466 92.4921 42.128 92.0222C40.9321 90.3483 39.6041 88.7986 37.7534 87.8112C37.2016 87.5182 37.5422 87.2806 37.7824 87.138C39.1923 86.3117 40.2826 85.1315 41.3466 83.9303C41.6845 83.5475 41.9907 83.1171 42.2231 82.6631C42.4554 82.2063 42.6455 82.2222 42.8805 82.6076C44.1107 84.6458 45.8294 86.1902 47.8517 87.497Z" fill="#FFFCC7"/>
<path d="M63.9926 96.9855C61.8146 96.4364 59.7131 95.7843 57.704 94.8285C55.9351 93.9864 54.1821 93.1125 52.6482 91.9033C51.8271 91.2565 51.0404 90.549 50.2246 89.8837C50.1348 89.8097 50.0398 89.6645 50.053 89.5669C50.0794 89.3425 50.2985 89.39 50.4437 89.3979C52.0304 89.4982 53.6145 89.6223 55.2012 89.7121C56.0486 89.7596 56.9014 89.7754 57.7515 89.7649C58.7204 89.7543 59.3725 90.0447 59.9322 90.9767C61.1651 93.0412 62.5195 95.0371 63.9926 96.9855Z" fill="#575ED2"/>
<path d="M95.1464 89.3557C90.8589 93.1046 86.2203 95.5837 80.7236 97.0542C81.9988 95.2088 83.1103 93.5983 84.2244 91.9879C84.3722 91.7767 84.5729 91.584 84.6574 91.349C85.1748 89.9313 86.2071 89.6039 87.609 89.7596C89.0689 89.9207 90.587 89.757 91.9757 89.4772C92.9921 89.2765 93.9029 89.493 95.1464 89.3557Z" fill="#575ED2"/>
<path d="M80.75 31.0942C82.7248 31.5536 84.4593 32.1424 86.1252 32.8816C88.0393 33.7317 89.8794 34.7481 91.6087 35.9467C91.9809 36.2054 92.3453 36.4087 91.9228 36.9156C91.8489 37.0028 91.8595 37.1638 91.8436 37.2932C91.6562 38.7927 91.6324 38.9247 90.1566 38.6343C88.8656 38.3809 87.5693 38.6053 86.281 38.3334C85.7081 38.2119 85.4071 37.9637 85.1827 37.5783C83.897 35.3791 82.4159 33.3146 80.75 31.0942Z" fill="#575ED2"/>
<path d="M54.3567 41.6704C54.0293 41.6572 53.702 41.6388 53.3746 41.6361C51.4552 41.6203 49.5544 41.9635 47.643 41.9899C46.7955 42.0005 46.2147 42.2592 45.7183 42.8902C43.3951 45.8471 41.6526 49.1234 40.3431 52.64C40.0686 53.3766 40.5517 53.3185 40.9688 53.2578C42.8037 52.9964 42.8433 53.0043 43.5324 54.459C44.76 54.195 46.0378 54.3772 47.2575 54.0393C47.7063 52.6057 47.8621 52.5054 49.3326 52.4816C50.357 52.4658 51.3708 52.339 52.374 52.1173C52.9971 52.4156 53.3772 52.3813 53.5911 51.5681C54.127 49.5458 54.7791 47.5552 55.5949 45.6253C56.181 44.2393 56.8014 42.8717 57.4641 41.3642C56.3447 41.5965 55.3203 41.1715 54.3567 41.6704Z" fill="#9747FF"/>
<path d="M59.2802 32.7364C59.1192 32.7522 58.937 32.7258 58.7997 32.7918C56.0091 34.1462 53.2819 35.6115 50.9455 37.6892C50.5679 38.0245 49.8894 38.1037 49.834 38.8825C51.9619 38.7347 54.0476 38.5895 56.1332 38.4443C57.0837 38.6264 57.9892 38.1803 58.9423 38.2568C59.4254 38.2964 59.7818 37.8714 59.8373 37.4833C59.9323 36.818 60.3811 36.4114 60.7006 35.9071C60.6689 35.7699 60.7481 35.7223 60.8643 35.7039C61.7038 34.0881 62.979 32.7654 64.0482 31.0679C62.282 31.5035 60.727 31.9602 59.2802 32.7364Z" fill="#575ED2"/>
<path d="M89.7001 61.1384C89.5576 59.3088 89.2487 57.5004 89.0718 55.6787C89.0428 55.383 88.8738 55.1216 88.4012 55.0213C86.8621 54.6992 85.2912 54.7705 83.7573 54.7203C80.3278 54.6042 76.8957 54.3613 73.4636 54.3903C69.8018 54.422 66.14 54.6279 62.4782 54.6332C60.4506 54.6359 58.4389 54.9474 56.4139 54.8576C56.0364 54.8418 55.8094 54.9474 55.7328 55.3724C55.2708 57.9465 55.0649 60.5444 54.954 63.1528C54.851 65.5949 55.1414 68.0185 55.3737 70.4447C55.3949 70.8803 55.4873 71.3212 55.5797 71.7278C55.7354 72.401 55.5454 73.5811 56.9261 73.1693C57.1136 73.2907 57.2799 73.4174 57.536 73.4148C60.6328 73.391 63.7243 73.7527 66.8106 73.7554C70.5305 73.7606 74.2556 73.8134 77.9834 73.6577C81.368 73.5151 84.7553 73.3277 88.1425 73.2353C88.7471 73.2194 88.9715 72.9897 89.0348 72.5304C89.2751 70.846 89.5893 69.159 89.6553 67.464C89.7371 65.3573 89.8638 63.2505 89.7001 61.1384ZM65.1447 68.1716C64.1441 69.3227 62.8056 69.8058 61.3509 69.6104C59.817 69.4045 58.5894 68.5861 57.9954 67.0575C57.7181 66.3446 58.1934 65.0299 58.9484 64.4279C59.6824 63.8445 60.477 63.4168 61.475 63.5303C61.8578 63.5726 62.267 63.6095 62.6102 63.3376C62.7898 62.6591 62.4465 61.9489 62.8426 61.2598C63.2201 60.6025 63.7719 60.4731 64.3791 60.5998C65.0365 60.7397 65.5513 61.1701 65.5909 61.904C65.641 62.799 65.7123 63.7125 65.1526 64.5124C65.7493 65.7348 66.1928 66.9677 65.1447 68.1716ZM75.6628 64.4174C74.8021 65.4338 73.7171 65.9777 72.4129 65.9117C71.1615 65.9486 70.1688 65.5077 69.3504 64.6391C68.6402 63.8867 68.5478 63.1317 69.1101 62.4848C69.485 62.0519 70.7523 61.9383 71.2644 62.4347C72.1436 63.2874 72.8617 63.0129 73.6299 62.3264C74.3164 61.7113 75.0213 61.9331 75.6259 62.4373C76.2357 62.9469 76.2225 63.7574 75.6628 64.4174ZM85.3493 68.961C82.8966 70.3391 80.0137 69.3939 79.1504 67.0099C78.7702 65.9618 79.5437 65.3678 79.8262 64.5758C79.2322 63.9263 78.9656 62.0862 79.3589 61.3285C79.7021 60.6658 80.3014 60.4414 80.9667 60.5972C81.6664 60.7609 82.1231 61.2414 82.1838 62.0149C82.2234 62.5218 82.036 63.0577 82.3765 63.525C83.4775 63.562 84.5837 63.4036 85.5869 64.1296C87.4376 65.4734 87.3478 67.8389 85.3493 68.961Z" fill="#FFFCC7"/>
<path d="M52.7438 72.1714C52.1762 69.959 52.1868 67.6832 52.0072 65.4312C51.7855 62.6908 52.2686 59.9689 52.4032 57.2337C52.7359 56.7453 52.5933 56.1513 52.7491 55.6154C52.8864 55.1507 52.4613 55.2563 52.1841 55.2801C51.6693 55.259 51.1782 55.259 50.6529 55.3936C48.9131 55.8451 48.0101 55.4438 47.2551 54.0392C46.0354 54.3745 44.7576 54.195 43.5299 54.459C43.3346 55.4094 42.7881 55.9111 41.798 56.0827C41.2489 56.1777 40.7077 56.2543 40.1612 56.2279C39.4378 56.1909 39.0655 56.608 38.9863 57.21C38.7408 59.066 38.5032 60.9272 38.3897 62.7938C38.2973 64.3224 38.3448 65.8563 38.556 67.3902C38.7355 68.6917 38.8174 70.0012 39.1342 71.2869C39.2424 71.7199 39.3929 71.7753 39.752 71.8255C40.969 71.9892 42.1967 72.0948 43.4111 72.2611C44.4223 72.401 45.4466 72.2479 46.4235 72.4618C48.2742 72.8683 50.1724 72.6941 52.0231 73.0109C52.7438 73.1323 52.8969 72.7601 52.7438 72.1714Z" fill="#FF24BD"/>
<path d="M103.486 90.182C103.357 90.1979 103.299 90.1451 103.323 90.0131C103.378 90.0711 103.431 90.1266 103.486 90.182Z" fill="#020202"/>
<path d="M60.6984 35.9098C60.6667 35.7725 60.7459 35.725 60.8621 35.7065C60.8093 35.7751 60.7539 35.8411 60.6984 35.9098Z" fill="#020202"/>
<path d="M82.3735 63.525C83.4744 63.562 84.5806 63.4036 85.5838 64.1296C87.4372 65.4734 87.3474 67.8389 85.3488 68.961C82.8962 70.3391 80.0132 69.3939 79.1499 67.0099C78.7698 65.9618 79.5433 65.3678 79.8231 64.5758C81.1907 64.9401 81.4996 64.8134 82.3735 63.525Z" fill="#EF5D84"/>
<path d="M65.1495 64.5125C65.7488 65.7348 66.1923 66.9678 65.1442 68.1716C64.1436 69.3227 62.8051 69.8059 61.3504 69.6105C59.8165 69.4046 58.5889 68.5861 57.9949 67.0575C57.7177 66.3447 58.1929 65.0299 58.948 64.428C59.6819 63.8445 60.4766 63.4168 61.4745 63.5304C61.8573 63.5726 62.2665 63.6096 62.6098 63.3376C62.8896 64.7818 63.547 65.0854 65.1495 64.5125Z" fill="#EF5D84"/>
<path d="M72.415 65.9091C71.1636 65.946 70.171 65.5051 69.3525 64.6365C68.6423 63.8841 68.5499 63.1291 69.1123 62.4822C69.4872 62.0493 70.7544 61.9357 71.2666 62.4321C72.1457 63.2848 72.8638 63.0102 73.6321 62.3238C74.3185 61.7087 75.0234 61.9305 75.628 62.4347C76.2379 62.9469 76.2247 63.7574 75.6676 64.4148C74.8017 65.4338 73.7192 65.9777 72.415 65.9091Z" fill="black"/>
<path d="M82.3736 63.525C81.4998 64.8108 81.1935 64.9375 79.826 64.5758C79.2319 63.9263 78.9653 62.0862 79.3587 61.3285C79.7019 60.6658 80.3012 60.4414 80.9665 60.5972C81.6661 60.7609 82.1228 61.2414 82.1836 62.0149C82.2205 62.5218 82.0331 63.0577 82.3736 63.525Z" fill="black"/>
<path d="M65.1491 64.5125C63.5466 65.0854 62.8866 64.7791 62.6094 63.335C62.7889 62.6591 62.4457 61.9463 62.8417 61.2572C63.2192 60.5999 63.771 60.4705 64.3782 60.5972C65.0356 60.7371 65.5504 61.1675 65.59 61.9014C65.6402 62.799 65.7088 63.7152 65.1491 64.5125Z" fill="black"/>
<path d="M107 64.406C106.97 66.2436 106.575 68.5 106.296 70.775C106.143 72.0099 105.228 71.8579 104.562 71.9299C101.987 72.2099 99.3825 72.2553 96.8187 72.6073C95.545 72.7807 94.2549 72.5753 92.9949 72.9354C92.1978 73.1621 91.8527 72.7807 92.0581 71.9752C92.7183 69.4068 92.795 66.7637 92.7868 64.1659C92.7785 61.4002 92.8004 58.5837 92.0609 55.8526C91.9349 55.3859 91.9705 54.9378 92.7374 55.0071C94.9452 55.2072 97.1584 55.3405 99.3661 55.5646C100.399 55.6712 101.442 55.7993 102.489 55.8126C103.562 55.8286 104.62 55.9699 105.669 56.1887C105.962 56.25 106.123 56.2847 106.186 56.6367C106.627 59.0558 106.997 61.4802 107 64.406Z" fill="#FF24BD"/>
<ellipse cx="19.0536" cy="42.1681" rx="6" ry="5.5" transform="rotate(12.4708 19.0536 42.1681)" fill="#AEAEAE"/>
<path d="M16.7867 48.1008L22.729 59.3094C22.8687 59.5731 23.0983 59.7781 23.376 59.8873C23.6538 59.9965 23.9615 60.0027 24.2434 59.9048L25.609 59.4321C25.895 59.3327 26.1352 59.133 26.285 58.8699C26.4348 58.6068 26.4841 58.2983 26.4236 58.0017L23.9651 45.8999" stroke="#272727" stroke-width="2" stroke-linecap="round" stroke-linejoin="round"/>
<path d="M18.5229 49.2239L23.4549 47.7503L25.6891 58.4909L23.5204 59.0354L18.5229 49.2239Z" fill="#9747FF"/>
<path d="M24.5336 60.1069C23.5001 61.2042 22.6552 62.4945 22.3778 64.1869C21.9617 66.7256 24.4898 69.5086 23.6317 71.9926C22.7737 74.4765 18.9149 74.7344 17.7775 72.933" stroke="#272727" stroke-width="2" stroke-linecap="round" stroke-linejoin="round"/>
<path d="M24.4617 44.8764C25.9678 41.7706 24.671 38.0318 21.5651 36.5257C18.4593 35.0196 14.7205 36.3164 13.2144 39.4222C11.7083 42.5281 13.0051 46.2669 16.111 47.773C19.2168 49.2791 22.9556 47.9823 24.4617 44.8764Z" stroke="#272727" stroke-width="2" stroke-linecap="round" stroke-linejoin="round"/>
<path d="M36.8147 68.2312C36.9853 68.6454 34.3428 66.6513 34.2333 66.5585C32.6495 65.217 31.0597 63.7783 29.6775 62.2319C27.9242 60.2703 26.506 58.1168 24.8964 56.0494C24.4919 55.5298 24.1336 55.0139 23.7699 54.4684C23.7032 54.3683 23.7831 54.2176 23.6477 54.1438C23.4542 54.0383 22.6777 55.5142 21.8147 54.6288C21.1703 53.9676 20.4343 52.5944 21.7421 52.1351C22.1479 51.9927 24.979 51.7911 24.442 52.8187C23.8653 53.9221 22.2845 54.0577 21.2075 53.823C20.8363 53.7421 20.7452 53.4458 20.9402 53.1089C21.3273 52.4403 22.3068 52.5077 22.9489 52.643C24.5879 52.9886 23.9565 54.0582 22.6243 54.2393C21.1381 54.4413 19.814 52.7571 21.8071 52.3681C22.5862 52.216 25.2567 53.2884 23.9417 54.2545C23.2498 54.7629 22.3276 54.6737 21.5703 54.3767C21.2927 54.2679 19.9671 53.5495 20.6691 53.0898C21.404 52.6086 22.7394 52.7503 23.5255 52.9714C25.0037 53.3873 21.6434 53.8553 21.5321 53.8727C21.1761 53.9282 18.0684 54.7511 19.5769 53.3533C20.6192 52.3875 22.9417 52.0482 24.3121 52.3223C25.0143 52.4627 24.4683 52.9433 24.1518 53.1471C23.293 53.7001 22.3211 54.0021 21.3106 54.1094C20.0989 54.2381 18.5901 54.1785 19.2409 52.4865C19.9258 50.7056 21.9967 50.6879 23.3269 51.6807C24.9363 52.8819 22.5234 53.5584 21.5245 53.6894C20.7858 53.7862 16.7606 53.8907 18.8437 52.3452C19.6361 51.7572 20.6747 51.5944 21.639 51.6731C22.1302 51.7132 24.3916 52.0999 23.7012 53.1318C22.9595 54.2401 19.9227 55.1949 18.71 54.4455C18.2371 54.1532 18.7621 53.4671 19.0041 53.254C19.8262 52.5303 21.2294 52.5042 22.2042 52.9103C23.3153 53.3733 21.514 54.4637 21.1273 54.6211C20.1527 55.0179 19.0067 54.7144 18.3091 53.9338C17.1676 52.6566 19.4785 51.1025 20.5278 51.0124C21.4456 50.9336 22.7983 51.2168 23.1436 52.2268C23.3504 52.8317 22.7384 53.2707 22.2386 53.4106C21.9427 53.4934 20.822 53.7167 21.0586 53.1547C21.1865 52.8509 21.3928 52.9027 21.6925 52.9027" stroke="#272727" stroke-width="3" stroke-linecap="round"/>
<path d="M109.03 68.031C109.09 68.5082 109.951 69.4334 110.173 69.7961C111.863 72.5566 113.221 75.2022 114.365 78.2481C114.613 78.909 116.68 84.3494 116.509 84.3183C116.021 84.2295 117.637 83.9354 117.799 83.9506C118.574 84.023 119.564 84.4427 118.353 84.8331C117.979 84.9538 115.293 85.0514 115.859 84.7143C116.553 84.3 119.838 83.7085 120.062 85.0707C120.192 85.8638 116.597 85.5086 116.181 85.1556C115.67 84.7218 119.252 83.9236 120.209 84.7766C121.404 85.8411 118.433 86.0402 117.878 86.0212C117.265 86.0002 116.151 85.8127 115.751 85.2518C115.249 84.5472 118.377 84.4954 118.557 84.505C119.217 84.5405 122.321 85.5795 120.254 85.9929C119.645 86.1148 116.844 86.5215 116.973 85.7496" stroke="#272727" stroke-width="3" stroke-linecap="round"/>
<path d="M56.4111 97.1212C56.4111 97.0393 55.9339 98.7609 55.8609 99.0949C54.7403 104.222 53.8594 109.357 52.9289 114.54C52.7031 115.798 52.4121 117.045 52.2454 118.321C52.2428 118.341 52.2592 118.881 52.1852 118.958C51.8774 119.277 50.9554 119.258 50.5731 119.417C49.7416 119.761 48.911 120.315 48.0539 119.795C47.7327 119.6 50.8994 117.915 51.2523 117.799C51.5724 117.693 52.2477 117.433 52.585 117.718C53.0841 118.141 51.44 119.162 51.3856 119.199C50.6706 119.673 49.9278 120.018 49.1544 120.277C49.0267 120.32 46.9211 121.046 47.8819 120.266C48.7937 119.525 49.9898 118.762 51.0804 118.745C52.5576 118.723 49.2168 120.738 49.0341 120.799C48.3697 121.021 47.3069 121.31 46.618 120.943C45.8054 120.509 47.6486 119.543 47.6498 119.543C48.7135 119.029 49.8386 118.732 50.9686 118.676C51.3748 118.656 52.4717 118.883 52.1293 119.176C51.4329 119.77 50.5502 120.115 49.7649 120.403C49.7586 120.406 46.999 121.186 47.1855 120.725C47.582 119.744 51.6704 117.914 51.6006 118.659C51.4781 119.967 49.2362 120.198 48.5182 120.357" stroke="#272727" stroke-width="3" stroke-linecap="round"/>
<path d="M90.4111 96.1212C90.4111 96.0393 90.8884 97.7609 90.9614 98.0949C92.0819 103.222 92.9629 108.357 93.8933 113.54C94.1192 114.798 94.4102 116.045 94.5769 117.321C94.5795 117.341 94.5631 117.881 94.637 117.958C94.9449 118.277 95.8668 118.258 96.2492 118.417C97.0806 118.761 97.9112 119.315 98.7684 118.795C99.0895 118.6 95.9228 116.915 95.5699 116.799C95.2499 116.693 94.5746 116.433 94.2372 116.718C93.7382 117.141 95.3823 118.162 95.4366 118.199C96.1517 118.673 96.8945 119.018 97.6678 119.277C97.7956 119.32 99.9012 120.046 98.9403 119.266C98.0286 118.525 96.8325 117.762 95.7419 117.745C94.2647 117.723 97.6055 119.738 97.7882 119.799C98.4525 120.021 99.5153 120.31 100.204 119.943C101.017 119.509 99.1737 118.543 99.1725 118.543C98.1087 118.029 96.9837 117.732 95.8537 117.676C95.4474 117.656 94.3505 117.883 94.6929 118.176C95.3893 118.77 96.2721 119.115 97.0574 119.403C97.0636 119.406 99.8233 120.186 99.6368 119.725C99.2402 118.744 95.1519 116.914 95.2217 117.659C95.3442 118.967 97.5861 119.198 98.3041 119.357" stroke="#272727" stroke-width="3" stroke-linecap="round"/>
</svg>
