<svg viewBox="0 0 26 28" fill="none" xmlns="http://www.w3.org/2000/svg">
<path d="M10.5 1C10.9911 0.633908 11.6742 0.1068 12.2875 0.0187972C12.5533 -0.019044 12.5 0.0119508 12.5 0.0119508H12.6667L12.8333 0.0119244H13L13.3333 0.0119629H13.5L13.7845 0.0522385C15.2488 0.39545 16.1157 1.33444 16.487 2.76361C16.5407 2.96953 16.5874 3.18778 16.5768 3.39723C16.5662 3.61459 16.6815 3.69556 16.8399 3.74308C17.9813 4.08453 19.0066 4.65919 19.9711 5.34033C20.1638 5.47673 20.2685 5.45473 20.412 5.34385C20.9717 4.91175 21.4372 4.39782 21.7795 3.77388C21.9837 3.40251 22.5689 3.10242 22.9183 3.24586C23.1093 3.32418 23.3134 3.46851 23.4296 3.67532C23.9523 4.60463 24.681 5.32185 25.6059 5.85603C26.0838 6.13236 26.1251 6.8399 25.7405 7.26055C25.4677 7.558 25.0832 7.69705 24.7919 7.96105C24.3739 8.33859 23.9567 8.71876 23.6549 9.20454C23.5845 9.31718 23.5827 9.4087 23.6452 9.51167C23.8467 9.83904 24.0641 10.1875 24.1838 10.5263C24.4416 11.2612 24.732 11.9969 24.8667 12.7704C25.033 13.727 25.1738 14.6898 25.1333 15.664C25.0691 17.2181 24.7822 18.7282 24.1424 20.1574C24.0606 20.3395 23.999 20.5375 23.8828 20.6942C23.7622 20.8561 23.6126 21.0286 23.3601 20.9705C23.2941 20.9274 23.2289 20.8843 23.1629 20.8403C23.1445 20.8218 23.1269 20.8033 23.1084 20.784C22.9306 20.5728 22.9552 20.3739 23.0881 20.1363C23.2492 19.8467 23.4199 19.5598 23.4683 19.2122C23.4929 19.0353 23.4692 19.0063 23.3108 19.0054C23.0072 19.0037 22.7044 19.0503 22.4079 19.0864C21.3994 19.2087 20.3864 19.2509 19.3753 19.3257C19.1606 19.3416 19.0708 19.4093 19.0277 19.5906C18.7883 20.6 18.4064 21.5584 17.9769 22.5C17.918 22.6294 17.749 22.7728 17.8291 22.8881C17.9347 23.0403 18.1582 22.9673 18.3201 22.9479C19.2019 22.8432 20.089 22.8203 20.9734 22.7658C21.2946 22.7455 21.5613 22.6496 21.7135 22.3865C21.9247 22.0222 22.2055 21.891 22.605 21.9834C22.8514 22.3557 22.8444 22.5044 22.5592 22.8714C21.5287 24.1976 20.2923 25.2844 18.8279 26.1134C17.8097 26.6898 16.7378 27.107 15.5973 27.3718C15.0526 27.4986 14.5079 27.5778 13.9552 27.6323C13.9323 27.635 13.9121 27.6702 13.891 27.6904C13.6718 27.6904 13.4527 27.6904 13.2336 27.6904C13.1456 27.5971 13.0584 27.5971 12.9704 27.6904C12.8824 27.6904 12.7953 27.6904 12.7073 27.6904C12.6413 27.6059 12.5762 27.6059 12.5102 27.6904C12.4002 27.6904 12.2911 27.6904 12.1811 27.6904C12.0931 27.6051 12.0059 27.5725 11.9179 27.6904C11.8079 27.6904 11.6988 27.6904 11.5888 27.6904C11.2297 27.6244 10.8707 27.5584 10.5108 27.4924C9.1872 27.2495 7.9446 26.784 6.7724 26.1284C6.01558 25.7051 5.3142 25.2008 4.66914 24.62C4.51953 24.4854 4.42097 24.5082 4.27576 24.6763C4.01439 24.9791 3.79615 25.3099 3.55942 25.6285C3.18629 26.1301 2.46202 26.1539 2.14961 25.6312C1.71312 24.9016 1.15078 24.3366 0.416837 23.9019C-0.163982 23.5587 -0.125261 22.7772 0.454678 22.412C0.906133 22.1278 1.30215 21.7854 1.66736 21.4C1.83368 21.2249 1.87152 21.077 1.75624 20.8359C1.19566 19.6637 0.791729 18.4413 0.599002 17.1477C0.471398 16.2932 0.424757 15.436 0.484599 14.5842C0.582282 13.1911 0.902613 11.8455 1.44999 10.5475C1.80816 9.69823 2.29394 8.93261 2.77883 8.16082C2.84396 8.05698 2.95132 7.98042 3.03932 7.89065C3.03932 7.87393 3.03932 7.85721 3.03932 7.84049C3.4459 7.27111 3.96159 6.80118 4.45441 6.31188C5.16107 5.6105 5.9663 5.04112 6.84281 4.57206C7.57587 4.17957 8.32829 3.82756 9.13792 3.61723C9.35089 3.56179 9.40457 3.45179 9.43273 3.22386C9.53129 2.43007 9.75042 1.67413 10.4025 1.12763C10.4034 1.10035 10.4991 1.02816 10.5 1C10.5185 0.982399 10.4762 1.01672 10.5 1ZM7.37786 6.82758C7.69467 6.8883 7.99652 6.73958 8.31421 6.7651C8.47526 6.7783 8.59406 6.63661 8.61254 6.50725C8.64422 6.28548 8.79471 6.14996 8.90031 5.98187C8.91879 5.95899 8.93639 5.93699 8.95487 5.91411C9.23472 5.37553 9.65978 4.93464 10.0162 4.36878C9.42745 4.51222 8.90911 4.66447 8.42686 4.9232C8.37318 4.92848 8.31245 4.91968 8.26669 4.94168C7.3365 5.39313 6.42743 5.88155 5.64861 6.57413C5.52276 6.68589 5.2966 6.71229 5.27811 6.9719C5.98654 6.9235 6.68176 6.8751 7.37786 6.82758ZM6.12382 11.3844C6.33151 11.4838 6.45823 11.4724 6.52952 11.2013C6.70816 10.5272 6.92553 9.86368 7.19746 9.22038C7.39282 8.75836 7.59963 8.30251 7.82052 7.80001C7.44827 7.87745 7.10593 7.73577 6.7856 7.90121C6.67648 7.89681 6.56736 7.89065 6.45823 7.88977C5.81845 7.88449 5.18483 7.9989 4.54769 8.0077C4.2652 8.01122 4.0716 8.09746 3.90615 8.30779C3.13173 9.29342 2.55091 10.3855 2.11441 11.5577C2.02289 11.8033 2.18393 11.7839 2.32298 11.7637C2.9346 11.6765 2.9478 11.6792 3.17749 12.1641C3.11236 12.4809 2.9302 12.6481 2.60019 12.7053C2.41714 12.737 2.23674 12.7625 2.05457 12.7537C1.81344 12.7414 1.68936 12.8804 1.66296 13.0811C1.58111 13.6997 1.50191 14.3201 1.46407 14.9423C1.43327 15.4519 1.44911 15.9632 1.51951 16.4745C1.57935 16.9083 1.60664 17.3448 1.71224 17.7734C1.74832 17.9177 1.79848 17.9362 1.91817 17.9529C2.32386 18.0075 2.73307 18.0427 3.13788 18.0981C3.47494 18.1447 3.81639 18.0937 4.142 18.165C4.7589 18.3005 5.39164 18.2424 6.00854 18.348C6.24791 18.3894 6.29895 18.2644 6.24791 18.0682C6.0587 17.3307 6.06222 16.5721 6.00238 15.8215C5.92846 14.908 6.0895 14.0007 6.13438 13.089C6.24527 12.9262 6.19774 12.7282 6.24967 12.5495C6.29543 12.3946 6.15374 12.4298 6.06134 12.4378C5.88973 12.4307 5.72605 12.4307 5.55092 12.4756C4.97098 12.6261 4.67001 12.4923 4.41833 12.0241C4.56793 11.5463 4.61985 11.5129 5.11003 11.5049C5.45148 11.5005 5.78941 11.4583 6.12382 11.3844ZM8.4955 19.4762C8.26053 19.4454 8.02116 19.4903 7.7862 19.4076C7.63219 19.3539 7.52747 19.4366 7.58203 19.6118C7.93052 20.7329 8.36525 21.8189 8.91439 22.8573C8.95663 22.9374 9.01472 23.028 9.13968 23.0192C9.37905 23.0016 9.61578 23.0703 9.8481 23.0747C10.9974 23.0923 12.1476 23.0764 13.2978 23.072C14.3468 23.1169 15.394 23.0685 16.4413 23.021C16.6023 23.0139 16.6639 22.9154 16.722 22.7931C16.913 22.3953 17.1154 22.0019 17.2993 21.6006C17.5932 20.9591 17.7904 20.2815 18.0192 19.6153C18.0711 19.4639 18.0438 19.3425 17.8308 19.4375C17.7833 19.4586 17.7261 19.463 17.6724 19.4657C16.4756 19.5105 15.2788 19.5642 14.081 19.5942C13.4694 19.6091 12.856 19.5739 12.2435 19.573C11.7956 19.5722 11.3406 19.6426 10.9006 19.5854C10.0998 19.4815 9.29281 19.6047 8.4955 19.4762ZM7.12353 17.4926C7.13057 17.6379 7.16138 17.7848 7.19218 17.9203C7.2441 18.1447 7.18074 18.5381 7.64187 18.4008C7.70435 18.4413 7.7598 18.4836 7.84516 18.4827C8.87743 18.4748 9.90795 18.5953 10.9367 18.5962C12.1767 18.598 13.4184 18.6156 14.661 18.5636C15.7892 18.5161 16.9183 18.4536 18.0473 18.4228C18.2489 18.4176 18.3237 18.341 18.3448 18.1879C18.4249 17.6264 18.5296 17.0641 18.5516 16.4991C18.5789 15.7986 18.6211 15.0972 18.5665 14.3923C18.519 13.7824 18.4161 13.1796 18.3571 12.5724C18.3474 12.4738 18.2911 12.3867 18.1336 12.3533C17.6205 12.2459 17.0969 12.2697 16.5856 12.253C15.4424 12.2142 14.2984 12.1333 13.1544 12.143C11.9338 12.1535 10.7132 12.2222 9.49257 12.2239C8.81671 12.2248 8.14613 12.3286 7.47115 12.2987C7.3453 12.2934 7.26962 12.3286 7.2441 12.4703C7.09009 13.3284 7.02145 14.1943 6.98449 15.0638C6.94929 15.876 7.04521 16.6839 7.12353 17.4926ZM10.8478 7.69529C10.3717 7.69529 10.0232 7.64689 9.69586 7.70937C9.40545 7.76481 9.0244 7.60992 8.83519 7.99626C8.35558 8.97661 7.90324 9.96576 7.61107 11.0236C7.53891 11.2832 7.60755 11.321 7.84076 11.3096C8.87215 11.2603 9.90443 11.2128 10.9367 11.1802C11.9531 11.1476 12.9704 11.123 13.9869 11.1802C14.4181 11.2048 14.8493 11.1811 15.284 11.2119C16.1289 11.2726 16.9816 11.3122 17.8326 11.3104C17.9989 11.3104 18.0508 11.299 17.9963 11.0896C17.7076 9.97984 17.2377 8.94669 16.7211 7.93201C16.6736 7.83785 16.6331 7.74633 16.4879 7.75249C16.2178 7.76481 15.9476 7.71465 15.6801 7.70233C14.8748 7.66713 14.067 7.69617 13.2609 7.63104C12.4099 7.56416 11.5624 7.73753 10.8478 7.69529ZM24.1539 15.5258C24.1521 14.5613 24.0333 13.7613 23.8951 12.9623C23.8749 12.8452 23.823 12.8338 23.7288 12.8144C23.3909 12.7431 23.0521 12.6956 22.7071 12.6903C22.3709 12.6851 22.0356 12.6428 21.7038 12.6085C20.9945 12.5337 20.2835 12.4906 19.5742 12.4246C19.3269 12.4017 19.3155 12.5495 19.3568 12.7035C19.5935 13.6047 19.5874 14.534 19.59 15.4466C19.5918 16.3028 19.5671 17.1758 19.3559 18.0233C19.289 18.2891 19.4008 18.4149 19.6569 18.3401C20.0617 18.2213 20.4753 18.2891 20.8854 18.2319C21.7091 18.1157 22.546 18.1016 23.3733 18.0083C23.5871 17.9846 23.881 18.0347 23.9303 17.6273C24.0174 16.8775 24.1442 16.1321 24.1539 15.5258ZM17.786 7.82817C17.9796 8.25234 18.1829 8.66156 18.3545 9.08397C18.6334 9.7704 18.8587 10.4762 19.0576 11.1908C19.0902 11.3087 19.0946 11.4504 19.2873 11.446C19.634 11.4372 19.9808 11.4381 20.3257 11.5058C20.8388 11.6061 21.3633 11.5032 21.8887 11.6202C22.3322 11.7188 22.8083 11.7073 23.2677 11.7716C23.4806 11.8015 23.5457 11.7135 23.4657 11.512C23.2967 11.0887 23.1427 10.6601 22.9315 10.2535C22.8637 10.1224 22.788 10.0802 22.6411 10.0529C22.3172 9.99216 22.0031 9.89272 21.8271 9.55919C21.5199 8.97661 21.0729 8.50579 20.6003 8.0561C20.5431 8.00154 20.4929 7.95138 20.4058 7.95314C19.5363 7.9681 18.6757 7.79473 17.786 7.82817ZM2.07305 18.994C2.18657 19.4164 2.35818 19.7746 2.51483 20.1389C2.56147 20.2471 2.60283 20.3422 2.76827 20.3263C3.20477 20.285 3.48726 20.5032 3.70638 20.8755C3.94047 21.2741 4.23352 21.627 4.59521 21.935C4.93754 22.2272 5.39252 22.3768 5.65125 22.7711C5.66973 22.7992 5.72517 22.8142 5.76565 22.8168C6.35879 22.8635 6.95193 22.9057 7.54507 22.9523C7.795 22.9717 7.83108 22.8705 7.72899 22.6628C7.60579 22.4102 7.53099 22.1242 7.36642 21.9042C7.2177 21.7053 7.41834 21.4457 7.19394 21.2865C7.06633 21.1958 7.02145 21.0532 6.97129 20.9045C6.82609 20.468 6.66064 20.0394 6.5744 19.5845C6.5436 19.4199 6.47671 19.3029 6.25583 19.3275C5.84397 19.3733 5.433 19.2773 5.02291 19.2492C4.70082 19.2272 4.37257 19.2421 4.05311 19.1832C3.40893 19.0644 2.75507 19.0529 2.07305 18.994ZM15.9678 6.67269C15.7839 6.34268 15.5771 6.00827 15.3316 5.69674C14.9373 5.19689 14.5695 4.67591 14.1286 4.21389C14.0432 4.12413 13.9596 4.06781 13.8214 4.06869C13.1315 4.07661 12.4415 4.06957 11.7507 4.07221C11.6574 4.07221 11.5554 4.05021 11.4814 4.14701C10.9631 4.83167 10.3849 5.47145 9.92995 6.2054C9.83226 6.3638 9.67914 6.49053 9.6589 6.67269C11.7692 6.67269 13.8619 6.67269 15.9678 6.67269ZM9.64834 24.0797C10.1588 24.8822 10.7264 25.5792 11.2614 26.3009C11.5448 26.6837 11.8704 26.718 12.2717 26.7048C12.7311 26.6898 13.1905 26.6995 13.6498 26.7021C13.8663 26.703 14.0362 26.6317 14.1752 26.4557C14.4137 26.1539 14.6812 25.874 14.9162 25.5696C15.2779 25.0996 15.6405 24.6279 15.9432 24.0797C13.839 24.0797 11.7736 24.0797 9.64834 24.0797ZM22.6437 8.99597C23.1849 8.01298 23.9136 7.27991 24.8227 6.72989C25.026 6.60669 24.9072 6.57765 24.7928 6.50725C23.9638 5.99067 23.2879 5.31657 22.774 4.4867C22.6552 4.29486 22.6112 4.3151 22.4985 4.48582C21.9239 5.36145 21.2146 6.10067 20.2606 6.61901C21.2392 7.21039 22.0251 7.98042 22.6437 8.99597ZM12.9071 0.919946C12.7056 0.893545 12.5392 1.02731 12.3509 1.04579C11.3864 1.13995 10.538 2.27871 10.4236 3.10946C10.406 3.2353 10.4782 3.3365 10.5996 3.27666C11.0608 3.0505 11.5606 3.1869 12.0394 3.1077C12.4662 3.03729 12.9176 3.03289 13.3656 3.07778C13.8716 3.12794 14.3917 3.01793 14.8889 3.21594C15.0068 3.26258 15.1424 3.2705 15.2717 3.2837C15.5014 3.30746 15.5982 3.15522 15.526 2.98009C15.3773 2.61928 15.3052 2.22943 15.0544 1.9047C14.5052 1.19539 13.7317 1.00795 12.9071 0.919946ZM4.61721 23.1776C3.94399 22.742 3.37109 22.2272 2.961 21.5478C2.88356 21.4193 2.81931 21.4141 2.74187 21.5663C2.66531 21.7177 2.56323 21.8611 2.4497 21.9887C2.09505 22.3891 1.7316 22.7825 1.26166 23.0579C1.18158 23.1046 1.06806 23.1847 1.25198 23.2824C1.86888 23.6115 2.31154 24.1272 2.71019 24.686C2.82195 24.8426 2.8994 24.8867 3.02788 24.6878C3.42917 24.0621 3.95367 23.5578 4.61721 23.1776ZM9.99771 26.3405C9.50753 25.6901 9.0552 25.0248 8.64422 24.3384C8.45766 24.0277 8.24117 23.9309 7.91732 23.9345C7.63395 23.938 7.3497 23.9327 7.06721 23.9169C6.53832 23.8869 6.0103 23.8456 5.4814 23.8121C5.433 23.8095 5.35996 23.7937 5.35116 23.8685C5.34764 23.9019 5.37844 23.9503 5.40836 23.9741C5.67941 24.1958 5.94254 24.4317 6.21623 24.6473C6.72752 25.0503 7.31186 25.3407 7.90148 25.6224C8.57118 25.9409 9.27168 26.1574 9.99771 26.3405ZM20.382 23.7972C19.9676 23.8421 19.6639 23.7699 19.3243 23.8385C18.8614 23.9318 18.3553 23.9864 17.8687 23.9327C17.4014 23.8808 17.0573 23.9899 16.8848 24.4625C16.8567 24.5408 16.7889 24.6042 16.7405 24.6754C16.3691 25.2123 15.9986 25.7491 15.5736 26.3642C17.4067 25.8732 18.9529 25.0477 20.382 23.7972ZM15.5833 4.3767C16.1385 5.1168 16.6322 5.80499 17.0608 6.53805C17.1356 6.66653 17.2359 6.75014 17.4269 6.78974C17.8572 6.88038 18.2885 6.80558 18.7188 6.89006C19.2107 6.98598 19.2195 6.94286 19.2811 6.44301C19.2864 6.39988 19.2829 6.3462 19.3075 6.31716C19.4483 6.1482 19.3269 6.08043 19.2028 5.99419C18.6264 5.59466 18.013 5.25585 17.375 4.97248C16.8197 4.72607 16.2415 4.52982 15.5833 4.3767Z" fill="#272727"/>
<path d="M11.9155 27.6887C12.0035 27.5707 12.0907 27.6033 12.1787 27.6887C12.0907 27.6887 12.0027 27.6887 11.9155 27.6887Z" fill="#495059"/>
<path d="M12.9678 27.6886C13.0558 27.5953 13.1429 27.5953 13.2309 27.6886C13.1429 27.6886 13.0549 27.6886 12.9678 27.6886Z" fill="#020202"/>
<path d="M12.5063 27.6887C12.5723 27.6042 12.6375 27.6042 12.7035 27.6887C12.6384 27.6887 12.5723 27.6887 12.5063 27.6887Z" fill="#020202"/>
<path d="M23.162 20.8395C23.228 20.8826 23.294 20.9257 23.3592 20.9697C23.1788 20.9838 23.1638 21.151 23.0908 21.2627C22.9315 21.5048 22.8153 21.7758 22.6032 21.9817C22.2037 21.8902 21.9238 22.0204 21.7117 22.3848C21.5595 22.6479 21.2929 22.7438 20.9716 22.7641C20.0872 22.8186 19.2001 22.8415 18.3184 22.9462C18.1564 22.9656 17.9329 23.0386 17.8273 22.8864C17.7472 22.7711 17.9162 22.6268 17.9751 22.4983C18.4046 21.5567 18.7865 20.5992 19.0259 19.5889C19.069 19.4085 19.1597 19.3399 19.3735 19.324C20.3847 19.2492 21.3976 19.207 22.4061 19.0847C22.7027 19.0486 23.0054 19.002 23.309 19.0037C23.4674 19.0046 23.4912 19.0336 23.4665 19.2105C23.419 19.559 23.2483 19.8459 23.0864 20.1345C22.9543 20.3713 22.9288 20.571 23.1066 20.7822C23.0996 20.8271 23.1189 20.8447 23.162 20.8395Z" fill="#9747FF"/>
<path d="M3.0358 7.8396C3.0358 7.85632 3.0358 7.87304 3.0358 7.88976C3.01996 7.87568 3.00412 7.8616 2.98828 7.8484C3.00324 7.84488 3.01996 7.84224 3.0358 7.8396Z" fill="#020202"/>
<path d="M10.8481 7.69527C11.5627 7.73663 12.411 7.56415 13.2611 7.63279C14.0672 7.69791 14.8751 7.66975 15.6803 7.70407C15.9478 7.71551 16.218 7.76656 16.4882 7.75424C16.6343 7.7472 16.6739 7.8396 16.7214 7.93376C17.238 8.94932 17.7079 9.98247 17.9965 11.0913C18.0511 11.2999 17.9983 11.3113 17.8329 11.3122C16.9819 11.314 16.1282 11.2744 15.2843 11.2136C14.8496 11.1828 14.4183 11.2066 13.9871 11.1819C12.9707 11.1247 11.9534 11.1494 10.937 11.1819C9.90468 11.2145 8.87241 11.262 7.84101 11.3113C7.60869 11.3228 7.54005 11.2849 7.61133 11.0253C7.9035 9.96751 8.35583 8.97836 8.83545 7.998C9.02465 7.61079 9.40571 7.76656 9.69612 7.71111C10.0235 7.64775 10.372 7.69527 10.8481 7.69527Z" fill="#575ED2"/>
<path d="M17.7856 7.82813C18.6762 7.79469 19.536 7.96893 20.4055 7.95133C20.4917 7.94957 20.5428 7.99973 20.6 8.05429C21.0726 8.50399 21.5196 8.97569 21.8267 9.55738C22.0027 9.89179 22.3169 9.99124 22.6408 10.0511C22.7877 10.0784 22.8625 10.1206 22.9312 10.2517C23.1415 10.6583 23.2955 11.0869 23.4654 11.5102C23.5463 11.7117 23.4803 11.7997 23.2673 11.7698C22.808 11.7055 22.3319 11.717 21.8883 11.6184C21.363 11.5022 20.8393 11.6052 20.3254 11.504C19.9804 11.4362 19.6337 11.4362 19.287 11.4442C19.0942 11.4486 19.0898 11.3078 19.0573 11.189C18.8584 10.4753 18.6331 9.76947 18.3541 9.08217C18.1825 8.66152 17.9793 8.2523 17.7856 7.82813Z" fill="#9747FF"/>
<path d="M2.07275 18.994C2.75478 19.053 3.40776 19.0644 4.0537 19.1841C4.37315 19.2431 4.7014 19.2281 5.02349 19.2501C5.43358 19.2783 5.84456 19.3751 6.25641 19.3284C6.4773 19.3038 6.5433 19.4208 6.57498 19.5854C6.66122 20.0404 6.82667 20.4689 6.97187 20.9054C7.02115 21.0542 7.06692 21.1967 7.19452 21.2874C7.41893 21.4467 7.2174 21.7063 7.36701 21.9052C7.53157 22.1252 7.60549 22.4112 7.72958 22.6637C7.83166 22.8714 7.79558 22.9726 7.54565 22.9533C6.95251 22.9066 6.35937 22.8644 5.76623 22.8177C5.72663 22.8142 5.67031 22.8001 5.65183 22.772C5.3931 22.3768 4.93813 22.2272 4.5958 21.936C4.23498 21.6288 3.94105 21.2751 3.70697 20.8764C3.48784 20.5041 3.20535 20.2859 2.76886 20.3273C2.60341 20.3431 2.56293 20.2481 2.51541 20.1398C2.35788 19.7746 2.18716 19.4164 2.07275 18.994Z" fill="#9747FF"/>
<path d="M15.9677 6.67265C13.8609 6.67265 11.7682 6.67265 9.65967 6.67265C9.67991 6.49048 9.83303 6.36376 9.93072 6.20535C10.3848 5.47141 10.963 4.83163 11.4822 4.14697C11.5553 4.05016 11.6582 4.07304 11.7515 4.07216C12.4414 4.06952 13.1323 4.07656 13.8222 4.06864C13.9604 4.06688 14.044 4.12408 14.1293 4.21385C14.5702 4.67586 14.9381 5.19684 15.3323 5.6967C15.577 6.00823 15.7838 6.34264 15.9677 6.67265Z" fill="#FF24BD"/>
<path d="M9.64844 24.0797C11.7737 24.0797 13.8391 24.0797 15.9424 24.0797C15.6397 24.628 15.2771 25.0997 14.9154 25.5696C14.6804 25.8741 14.4138 26.1539 14.1744 26.4558C14.0354 26.6318 13.8655 26.7031 13.649 26.7022C13.1897 26.6996 12.7294 26.6899 12.2709 26.7048C11.8696 26.718 11.544 26.6837 11.2607 26.3009C10.7265 25.5793 10.1589 24.8823 9.64844 24.0797Z" fill="#FF24BD"/>
<path d="M22.6435 8.99596C22.0248 7.98041 21.2398 7.21038 20.2612 6.61988C21.2152 6.10155 21.9236 5.36144 22.4991 4.4867C22.6118 4.31597 22.6558 4.29573 22.7746 4.48758C23.2885 5.31744 23.9644 5.99066 24.7934 6.50812C24.9069 6.5794 25.0257 6.60845 24.8233 6.73077C23.9125 7.27991 23.1847 8.01297 22.6435 8.99596Z" fill="#FFFCC7"/>
<path d="M12.9073 0.919941C13.7318 1.00794 14.5054 1.19539 15.0528 1.90469C15.3027 2.22854 15.3749 2.61928 15.5245 2.98009C15.5966 3.15521 15.4998 3.30746 15.2701 3.2837C15.1417 3.2705 15.0053 3.26258 14.8873 3.21594C14.3901 3.01793 13.8709 3.12881 13.364 3.07777C12.9161 3.03289 12.4655 3.03729 12.0378 3.10769C11.5591 3.18689 11.0592 3.05049 10.5981 3.27666C10.4766 3.3365 10.4045 3.2353 10.4221 3.10945C10.5373 2.27871 11.3857 1.13995 12.3493 1.04578C12.5394 1.0273 12.7057 0.89354 12.9073 0.919941Z" fill="#7D7D7D"/>
<path d="M17.8308 19.4375C17.7833 19.4586 17.7261 19.463 17.6724 19.4656C16.4756 19.5105 15.2787 19.5642 14.081 19.5941C13.4694 19.6091 12.856 19.5739 12.2435 19.573C11.7956 19.5721 11.3406 19.6425 10.9006 19.5853C10.0989 19.4815 9.2919 19.6047 8.49548 19.4762C8.26051 19.4454 8.02114 19.4903 7.78618 19.4076C7.63217 19.3539 7.52745 19.4366 7.58201 19.6117C7.9305 20.7329 8.36523 21.8188 8.91437 22.8573C8.95661 22.9374 9.01469 23.028 9.13966 23.0192C9.37903 23.0016 9.61575 23.0702 9.84808 23.0746C10.9974 23.0922 12.1476 23.0764 13.2978 23.072C14.3468 23.1169 15.394 23.0685 16.4413 23.021C16.6023 23.0139 16.6639 22.9153 16.722 22.793C16.913 22.3953 17.1154 22.0019 17.2993 21.6006C17.5932 20.959 17.7903 20.2814 18.0191 19.6152C18.0711 19.4639 18.0438 19.3424 17.8308 19.4375Z" fill="#575ED2"/>
<path d="M4.61708 23.1777C3.95442 23.5579 3.42992 24.0621 3.02687 24.6878C2.89927 24.8867 2.82182 24.8427 2.70918 24.6861C2.31053 24.1281 1.86787 23.6115 1.25097 23.2824C1.06705 23.1847 1.18057 23.1055 1.26065 23.058C1.73059 22.7826 2.09404 22.3892 2.44869 21.9888C2.56134 21.8612 2.66342 21.7177 2.74086 21.5664C2.8183 21.4141 2.88167 21.4194 2.95999 21.5479C3.37008 22.2273 3.94298 22.7421 4.61708 23.1777Z" fill="#FFFCC7"/>
<path d="M9.99755 26.3405C9.27152 26.1575 8.57102 25.9401 7.90132 25.6215C7.3117 25.3408 6.72736 25.0495 6.21607 24.6464C5.94238 24.4308 5.68013 24.195 5.4082 23.9732C5.37828 23.9486 5.3466 23.9002 5.351 23.8676C5.3598 23.7928 5.43284 23.8087 5.48124 23.8113C6.01014 23.8447 6.53816 23.8861 7.06705 23.916C7.34954 23.9319 7.63379 23.9371 7.91716 23.9336C8.24013 23.9301 8.4575 24.0269 8.64407 24.3376C9.05504 25.0257 9.50649 25.691 9.99755 26.3405Z" fill="#575ED2"/>
<path d="M20.3823 23.7972C18.9531 25.0469 17.4069 25.8732 15.5747 26.3634C15.9998 25.7483 16.3703 25.2114 16.7416 24.6746C16.7909 24.6042 16.8578 24.54 16.8859 24.4617C17.0584 23.9891 17.4025 23.88 17.8698 23.9319C18.3565 23.9856 18.8625 23.931 19.3254 23.8377C19.6642 23.7708 19.9678 23.843 20.3823 23.7972Z" fill="#575ED2"/>
<path d="M15.5835 4.37671C16.2418 4.52983 16.8199 4.72608 17.3752 4.97249C18.0133 5.25586 18.6266 5.59467 19.2031 5.9942C19.3271 6.08044 19.4486 6.14821 19.3078 6.31717C19.2831 6.34621 19.2867 6.39989 19.2814 6.44302C19.2189 6.94287 19.211 6.98687 18.719 6.89007C18.2887 6.80559 17.8566 6.88039 17.4272 6.78975C17.2362 6.74927 17.1359 6.66654 17.0611 6.53806C16.6325 5.805 16.1388 5.11681 15.5835 4.37671Z" fill="#575ED2"/>
<path d="M6.78541 7.90213C6.67628 7.89773 6.56716 7.89157 6.45803 7.89069C5.81825 7.88541 5.18463 7.99982 4.54749 8.00862C4.265 8.01214 4.0714 8.09838 3.90595 8.30871C3.13153 9.29434 2.55071 10.3865 2.11421 11.5587C2.02269 11.8042 2.18374 11.7848 2.32278 11.7646C2.9344 11.6775 2.9476 11.6801 3.17729 12.165C3.5865 12.077 4.01243 12.1377 4.41901 12.0251C4.56861 11.5472 4.62053 11.5138 5.11071 11.5058C5.45216 11.5006 5.79009 11.4583 6.1245 11.3844C6.33219 11.4838 6.45891 11.4724 6.5302 11.2014C6.70884 10.5273 6.92621 9.86372 7.19814 9.22041C7.3935 8.7584 7.60031 8.30255 7.8212 7.80005C7.44807 7.87749 7.10662 7.73581 6.78541 7.90213Z" fill="#9747FF"/>
<path d="M8.42658 4.9241C8.37289 4.92938 8.31217 4.92058 8.26641 4.94258C7.33622 5.39403 6.42715 5.88245 5.64832 6.57503C5.52248 6.6868 5.29631 6.7132 5.27783 6.97281C5.98714 6.92352 6.68236 6.87512 7.37758 6.82672C7.69439 6.88744 7.99624 6.73872 8.31393 6.76424C8.47498 6.77744 8.59378 6.63575 8.61226 6.50639C8.64394 6.28462 8.79355 6.1491 8.90003 5.98101C8.88947 5.93525 8.91587 5.91941 8.95459 5.91325C9.23444 5.37467 9.6595 4.93378 10.0159 4.36792C9.42717 4.51312 8.90883 4.66537 8.42658 4.9241Z" fill="#575ED2"/>
<path d="M18.5667 14.3914C18.5192 13.7815 18.4162 13.1787 18.3573 12.5715C18.3476 12.4729 18.2913 12.3858 18.1337 12.3524C17.6207 12.245 17.0971 12.2688 16.5858 12.252C15.4426 12.2133 14.2986 12.1324 13.1545 12.142C11.9339 12.1526 10.7133 12.2212 9.49274 12.223C8.81688 12.2239 8.1463 12.3277 7.47131 12.2978C7.34547 12.2925 7.26979 12.3277 7.24427 12.4694C7.09026 13.3274 7.02162 14.1934 6.98466 15.0628C6.95034 15.8769 7.04714 16.6847 7.12458 17.4935C7.13162 17.6387 7.16242 17.7857 7.19323 17.9212C7.24515 18.1456 7.18179 18.539 7.64204 18.4017C7.70452 18.4422 7.75996 18.4844 7.84533 18.4835C8.8776 18.4756 9.90811 18.5962 10.9369 18.597C12.1768 18.5988 13.4185 18.6164 14.6611 18.5645C15.7893 18.517 16.9184 18.4545 18.0475 18.4237C18.249 18.4184 18.3238 18.3418 18.3449 18.1887C18.425 17.6273 18.5298 17.0649 18.5518 16.4999C18.579 15.7977 18.6213 15.0954 18.5667 14.3914ZM10.3816 16.7358C10.048 17.1195 9.60186 17.2805 9.11697 17.2154C8.60567 17.1468 8.19646 16.8739 7.99845 16.3644C7.90605 16.1268 8.06445 15.6885 8.31614 15.4879C8.56079 15.2934 8.82568 15.1509 9.15833 15.1887C9.28593 15.2028 9.42234 15.2151 9.53674 15.1245C9.59658 14.8983 9.48218 14.6616 9.61418 14.4319C9.74003 14.2127 9.92395 14.1696 10.1264 14.2119C10.3455 14.2585 10.5171 14.4019 10.5303 14.6466C10.547 14.9449 10.5708 15.2494 10.3842 15.5161C10.5831 15.9235 10.7309 16.3345 10.3816 16.7358ZM13.8876 15.4844C13.6007 15.8232 13.239 16.0045 12.8043 15.9825C12.3872 15.9948 12.0563 15.8478 11.7835 15.5583C11.5467 15.3075 11.5159 15.0558 11.7034 14.8402C11.8283 14.6959 12.2508 14.658 12.4215 14.8235C12.7145 15.1077 12.9539 15.0162 13.21 14.7874C13.4388 14.5824 13.6738 14.6563 13.8753 14.8244C14.0786 14.9942 14.0742 15.2644 13.8876 15.4844ZM17.1164 16.9989C16.2989 17.4583 15.3379 17.1432 15.0501 16.3486C14.9234 15.9992 15.1812 15.8012 15.2754 15.5372C15.0774 15.3207 14.9885 14.7073 15.1196 14.4547C15.234 14.2339 15.4338 14.1591 15.6556 14.211C15.8888 14.2655 16.041 14.4257 16.0613 14.6836C16.0745 14.8525 16.012 15.0312 16.1255 15.1869C16.4925 15.1993 16.8612 15.1465 17.1956 15.3885C17.8125 15.8364 17.7826 16.6249 17.1164 16.9989Z" fill="#FFFCC7"/>
<path d="M6.24794 18.0691C6.05873 17.3316 6.06225 16.573 6.00241 15.8223C5.92849 14.9089 6.08953 14.0016 6.13442 13.0899C6.2453 12.9271 6.19778 12.729 6.2497 12.5504C6.29546 12.3955 6.15378 12.4307 6.06137 12.4386C5.88977 12.4316 5.72608 12.4316 5.55096 12.4765C4.97102 12.627 4.67005 12.4932 4.41836 12.025C4.01179 12.1368 3.58585 12.0769 3.17664 12.1649C3.11152 12.4818 2.92935 12.649 2.59934 12.7062C2.41629 12.7378 2.23589 12.7634 2.05372 12.7546C1.81259 12.7422 1.68851 12.8813 1.66211 13.0819C1.58027 13.7006 1.50106 14.321 1.46322 14.9432C1.43242 15.4527 1.44826 15.964 1.51867 16.4753C1.57851 16.9092 1.60579 17.3457 1.71139 17.7743C1.74747 17.9186 1.79763 17.9371 1.91732 17.9538C2.32301 18.0083 2.73223 18.0435 3.13704 18.099C3.47409 18.1456 3.81554 18.0946 4.14115 18.1659C4.75805 18.3014 5.39079 18.2433 6.00769 18.3489C6.24794 18.3894 6.29898 18.2653 6.24794 18.0691Z" fill="#FF24BD"/>
<path d="M23.1623 24.0727C23.1191 24.078 23.0998 24.0604 23.1077 24.0164C23.1262 24.0357 23.1438 24.0542 23.1623 24.0727Z" fill="#020202"/>
<path d="M8.89931 5.98182C8.88875 5.93606 8.91515 5.92022 8.95387 5.91406C8.93627 5.93694 8.91779 5.95894 8.89931 5.98182Z" fill="#020202"/>
<path d="M16.1245 15.187C16.4915 15.1993 16.8602 15.1465 17.1946 15.3885C17.8124 15.8365 17.7825 16.625 17.1163 16.999C16.2987 17.4584 15.3377 17.1433 15.05 16.3486C14.9233 15.9993 15.1811 15.8013 15.2744 15.5373C15.7302 15.6587 15.8332 15.6165 16.1245 15.187Z" fill="#EF5D84"/>
<path d="M10.3832 15.5161C10.5829 15.9236 10.7308 16.3346 10.3814 16.7358C10.0479 17.1195 9.60171 17.2806 9.11681 17.2155C8.60551 17.1468 8.1963 16.874 7.99829 16.3645C7.90589 16.1269 8.0643 15.6886 8.31598 15.488C8.56063 15.2935 8.82552 15.1509 9.15817 15.1888C9.28578 15.2028 9.42218 15.2152 9.53658 15.1245C9.62987 15.6059 9.84899 15.7071 10.3832 15.5161Z" fill="#EF5D84"/>
<path d="M12.8052 15.9816C12.388 15.994 12.0571 15.847 11.7843 15.5575C11.5476 15.3067 11.5168 15.055 11.7043 14.8394C11.8292 14.695 12.2516 14.6572 12.4224 14.8227C12.7154 15.1069 12.9548 15.0154 13.2109 14.7866C13.4397 14.5815 13.6746 14.6554 13.8762 14.8235C14.0795 14.9943 14.0751 15.2644 13.8894 15.4836C13.6007 15.8232 13.2399 16.0045 12.8052 15.9816Z" fill="black"/>
<path d="M16.1245 15.1869C15.8333 15.6155 15.7312 15.6577 15.2753 15.5372C15.0773 15.3207 14.9884 14.7073 15.1196 14.4548C15.234 14.2339 15.4337 14.1591 15.6555 14.211C15.8887 14.2655 16.0409 14.4257 16.0612 14.6836C16.0735 14.8525 16.011 15.0312 16.1245 15.1869Z" fill="black"/>
<path d="M10.3832 15.5161C9.84903 15.7071 9.62902 15.605 9.53662 15.1236C9.59646 14.8984 9.48206 14.6607 9.61406 14.4311C9.73991 14.2119 9.92383 14.1688 10.1262 14.2111C10.3454 14.2577 10.517 14.4011 10.5302 14.6458C10.5469 14.945 10.5698 15.2504 10.3832 15.5161Z" fill="black"/>
<path d="M24.3335 15.4807C24.3235 16.0932 24.192 16.8453 24.0988 17.6037C24.0477 18.0153 23.7428 17.9646 23.5209 17.9886C22.6626 18.082 21.7943 18.0971 20.9397 18.2144C20.5152 18.2722 20.0851 18.2038 19.6651 18.3238C19.3994 18.3994 19.2844 18.2722 19.3529 18.0037C19.5729 17.1476 19.5985 16.2666 19.5957 15.4007C19.593 14.4787 19.6003 13.5399 19.3538 12.6295C19.3118 12.474 19.3237 12.3246 19.5793 12.3477C20.3152 12.4144 21.053 12.4588 21.7889 12.5335C22.1331 12.5691 22.4809 12.6118 22.8297 12.6162C23.1876 12.6215 23.5401 12.6687 23.8898 12.7416C23.9875 12.762 24.0413 12.7736 24.0623 12.8909C24.2093 13.6973 24.3326 14.5054 24.3335 15.4807Z" fill="#FF24BD"/>
</svg>
