<svg width="220" height="286" viewBox="0 0 220 286" fill="none" xmlns="http://www.w3.org/2000/svg">
<path d="M90.2404 57.9542C94.3955 54.8565 98.7814 52.0864 103.972 51.3418C106.22 51.0216 106.116 49.9642 106.116 48.4228C106.101 34.4236 106.101 20.4169 106.124 6.41769C106.124 5.35286 105.93 4.29547 106.615 3.22319C107.605 1.67434 108.611 0.16272 110.658 0.587164C112.937 1.05629 114.233 2.70194 114.419 5.01777C114.56 6.76767 114.456 8.53992 114.456 10.3047C114.456 23.1051 114.523 35.898 114.382 48.6983C114.359 50.627 115.141 51.2748 116.638 51.6248C129.029 54.5289 136.363 62.4742 139.506 74.5671C139.96 76.3096 140.355 78.1563 140.265 79.9285C140.176 81.7678 141.151 82.4529 142.492 82.8549C152.15 85.7442 160.825 90.6067 168.986 96.3702C170.617 97.5244 171.503 97.3382 172.717 96.3999C177.453 92.7438 181.392 88.3951 184.288 83.1156C186.016 79.9732 190.968 77.434 193.924 78.6477C195.54 79.3105 197.267 80.5317 198.25 82.2816C202.674 90.145 208.839 96.2138 216.665 100.734C220.709 103.072 221.059 109.059 217.805 112.618C215.496 115.135 212.242 116.312 209.777 118.546C206.24 121.74 202.711 124.957 200.157 129.067C199.561 130.02 199.546 130.795 200.075 131.666C201.78 134.436 203.619 137.385 204.632 140.252C206.814 146.47 209.271 152.695 210.41 159.24C211.818 167.334 213.009 175.481 212.667 183.724C212.123 196.874 209.695 209.652 204.282 221.745C203.589 223.287 203.068 224.962 202.085 226.287C201.065 227.658 199.799 229.117 197.662 228.626C197.104 228.261 196.553 227.896 195.994 227.524C195.838 227.367 195.689 227.211 195.532 227.047C194.028 225.26 194.237 223.577 195.361 221.566C196.724 219.117 198.168 216.689 198.578 213.748C198.786 212.251 198.585 212.005 197.245 211.998C194.676 211.983 192.115 212.378 189.605 212.683C181.072 213.718 172.501 214.075 163.945 214.708C162.128 214.842 161.368 215.416 161.003 216.95C158.978 225.491 155.746 233.6 152.112 241.567C151.614 242.662 150.184 243.876 150.861 244.851C151.755 246.14 153.646 245.521 155.017 245.358C162.478 244.472 169.984 244.278 177.467 243.816C180.185 243.645 182.442 242.833 183.73 240.607C185.517 237.524 187.892 236.415 191.273 237.196C193.358 240.346 193.299 241.605 190.886 244.71C182.166 255.932 171.704 265.128 159.313 272.142C150.698 277.02 141.628 280.549 131.977 282.791C127.368 283.863 122.759 284.533 118.082 284.995C117.889 285.017 117.718 285.315 117.539 285.486C115.685 285.486 113.831 285.486 111.976 285.486C111.232 284.697 110.495 284.697 109.75 285.486C109.005 285.486 108.268 285.486 107.523 285.486C106.965 284.771 106.414 284.771 105.855 285.486C104.925 285.486 104.001 285.486 103.071 285.486C102.326 284.764 101.589 284.488 100.844 285.486C99.9132 285.486 98.9899 285.486 98.0591 285.486C95.021 284.928 91.9828 284.369 88.9372 283.811C77.7379 281.756 67.2236 277.816 57.305 272.269C50.9011 268.687 44.9663 264.42 39.5081 259.506C38.2422 258.367 37.4082 258.56 36.1795 259.982C33.9679 262.544 32.1212 265.344 30.1182 268.039C26.9609 272.284 20.8325 272.485 18.189 268.062C14.4956 261.889 9.73737 257.108 3.52708 253.43C-1.38754 250.525 -1.0599 243.913 3.84727 240.823C7.66728 238.418 11.0182 235.521 14.1084 232.259C15.5158 230.778 15.836 229.527 14.8605 227.486C10.1171 217.568 6.69924 207.225 5.06848 196.278C3.98876 189.048 3.5941 181.795 4.10045 174.587C4.927 162.799 7.63749 151.414 12.2691 140.43C15.2998 133.245 19.4102 126.766 23.5132 120.236C24.0642 119.357 24.9727 118.709 25.7173 117.95C25.7173 117.808 25.7173 117.667 25.7173 117.525C29.1576 112.708 33.5212 108.731 37.6912 104.591C43.6706 98.6562 50.4841 93.8384 57.9007 89.8695C64.1035 86.5484 70.4702 83.5698 77.3209 81.7901C79.1229 81.321 79.5771 80.3902 79.8154 78.4616C80.6494 71.7449 82.5036 65.3485 88.0213 60.7243C88.0288 60.4934 88.0362 60.2626 88.0437 60.0243C88.4309 59.3169 88.967 58.7659 89.6819 58.3861C89.8383 58.2372 90.0393 58.0957 90.2404 57.9542ZM62.4281 108.955C65.1088 109.468 67.6629 108.21 70.351 108.426C71.7137 108.538 72.719 107.339 72.8754 106.244C73.1434 104.368 74.4168 103.221 75.3103 101.799C75.4667 101.605 75.6156 101.419 75.772 101.225C78.14 96.668 81.7366 92.9374 84.7524 88.1493C79.7707 89.3631 75.3848 90.6513 71.3042 92.8406C70.85 92.8853 70.3361 92.8108 69.9489 92.9969C62.0781 96.8169 54.386 100.95 47.7959 106.81C46.7311 107.756 44.8173 107.979 44.661 110.176C50.6553 109.766 56.538 109.357 62.4281 108.955ZM51.817 147.512C53.5743 148.353 54.6466 148.257 55.2497 145.963C56.7614 140.259 58.6006 134.645 60.9016 129.201C62.5547 125.292 64.3046 121.435 66.1736 117.183C63.0238 117.838 60.1271 116.639 57.4167 118.039C56.4933 118.002 55.5699 117.95 54.6466 117.942C49.2331 117.898 43.8717 118.866 38.4805 118.94C36.0902 118.97 34.452 119.7 33.052 121.479C26.4992 129.819 21.5846 139.06 17.8912 148.979C17.1168 151.056 18.4794 150.893 19.656 150.721C24.8312 149.984 24.9429 150.007 26.8864 154.11C26.3354 156.79 24.794 158.205 22.0016 158.689C20.4527 158.957 18.9262 159.173 17.3848 159.099C15.3445 158.994 14.2946 160.171 14.0712 161.869C13.3787 167.103 12.7085 172.353 12.3883 177.618C12.1277 181.929 12.2617 186.256 12.8574 190.582C13.3638 194.253 13.5946 197.946 14.4882 201.573C14.7935 202.794 15.2179 202.95 16.2306 203.092C19.6634 203.554 23.126 203.851 26.5513 204.321C29.4033 204.715 32.2925 204.283 35.0477 204.886C40.2676 206.033 45.6216 205.542 50.8415 206.435C52.8669 206.785 53.2988 205.728 52.8669 204.067C51.2659 197.827 51.2957 191.409 50.7894 185.057C50.1639 177.327 51.5266 169.65 51.9063 161.936C52.8446 160.558 52.4425 158.883 52.8818 157.371C53.269 156.06 52.0701 156.358 51.2883 156.425C49.8362 156.366 48.4512 156.366 46.9694 156.746C42.0622 158.019 39.5155 156.887 37.3858 152.926C38.6517 148.882 39.0911 148.599 43.2387 148.532C46.1279 148.495 48.9873 148.138 51.817 147.512ZM71.885 215.982C69.8968 215.721 67.8714 216.101 65.8832 215.401C64.5801 214.947 63.694 215.647 64.1556 217.128C67.1044 226.615 70.7829 235.804 75.4295 244.591C75.7869 245.268 76.2784 246.035 77.3358 245.961C79.3612 245.812 81.3643 246.393 83.3301 246.43C93.0551 246.579 102.788 246.445 112.52 246.408C121.396 246.787 130.257 246.378 139.119 245.976C140.481 245.916 141.002 245.082 141.494 244.047C143.11 240.681 144.822 237.353 146.379 233.957C148.866 228.529 150.534 222.795 152.47 217.158C152.909 215.877 152.678 214.85 150.876 215.654C150.474 215.833 149.99 215.87 149.536 215.892C139.409 216.272 129.282 216.726 119.147 216.979C113.972 217.106 108.782 216.808 103.599 216.801C99.809 216.793 95.9592 217.389 92.236 216.905C85.4598 216.026 78.6314 217.069 71.885 215.982ZM60.2761 199.197C60.3356 200.426 60.5963 201.67 60.8569 202.816C61.2962 204.715 60.7601 208.044 64.662 206.882C65.1907 207.225 65.6598 207.582 66.3821 207.575C75.1167 207.508 83.8365 208.528 92.5413 208.535C103.033 208.55 113.54 208.699 124.054 208.26C133.601 207.858 143.154 207.329 152.708 207.068C154.413 207.024 155.046 206.376 155.225 205.08C155.903 200.329 156.789 195.571 156.975 190.79C157.206 184.863 157.563 178.928 157.102 172.964C156.699 167.803 155.828 162.703 155.329 157.565C155.247 156.731 154.771 155.993 153.438 155.71C149.097 154.802 144.666 155.003 140.34 154.862C130.667 154.534 120.987 153.849 111.306 153.931C100.978 154.02 90.6499 154.601 80.3218 154.616C74.6029 154.623 68.9288 155.502 63.2174 155.249C62.1526 155.204 61.5122 155.502 61.2962 156.701C59.9931 163.961 59.4123 171.288 59.0995 178.645C58.8017 185.518 59.6133 192.354 60.2761 199.197ZM91.7892 116.297C87.7607 116.297 84.8119 115.887 82.0419 116.416C79.5846 116.885 76.3603 115.574 74.7593 118.843C70.701 127.139 66.8736 135.508 64.4014 144.459C63.7908 146.656 64.3716 146.976 66.3449 146.879C75.0721 146.462 83.8067 146.06 92.5413 145.784C101.142 145.509 109.75 145.3 118.351 145.784C121.999 145.993 125.648 145.792 129.327 146.053C136.475 146.566 143.691 146.901 150.891 146.887C152.299 146.887 152.738 146.79 152.276 145.017C149.834 135.628 145.858 126.885 141.486 118.3C141.084 117.503 140.742 116.729 139.513 116.781C137.227 116.885 134.941 116.461 132.677 116.356C125.864 116.058 119.028 116.304 112.207 115.753C105.007 115.187 97.8357 116.654 91.7892 116.297ZM204.379 182.555C204.364 174.394 203.359 167.625 202.189 160.863C202.018 159.873 201.579 159.776 200.782 159.612C197.923 159.009 195.056 158.607 192.137 158.562C189.292 158.518 186.455 158.16 183.648 157.87C177.646 157.237 171.629 156.872 165.628 156.314C163.535 156.12 163.438 157.371 163.788 158.674C165.792 166.299 165.739 174.163 165.762 181.885C165.777 189.13 165.568 196.517 163.781 203.688C163.215 205.936 164.161 207.001 166.328 206.368C169.753 205.363 173.253 205.936 176.723 205.452C183.693 204.469 190.774 204.35 197.774 203.561C199.583 203.36 202.07 203.784 202.487 200.337C203.225 193.992 204.297 187.685 204.379 182.555ZM150.497 117.421C152.135 121.01 153.855 124.473 155.307 128.047C157.667 133.855 159.574 139.827 161.257 145.874C161.532 146.872 161.569 148.07 163.2 148.033C166.134 147.959 169.068 147.966 171.987 148.54C176.328 149.389 180.766 148.517 185.212 149.508C188.965 150.342 192.993 150.245 196.88 150.788C198.682 151.042 199.233 150.297 198.556 148.592C197.126 145.01 195.823 141.384 194.036 137.943C193.462 136.834 192.822 136.476 191.578 136.246C188.838 135.732 186.18 134.89 184.69 132.068C182.092 127.139 178.309 123.155 174.31 119.35C173.826 118.888 173.402 118.464 172.665 118.479C165.308 118.605 158.025 117.138 150.497 117.421ZM17.5412 211.901C18.5018 215.475 19.9538 218.506 21.2793 221.589C21.674 222.505 22.0239 223.309 23.4239 223.175C27.1173 222.825 29.5076 224.672 31.3617 227.821C33.3425 231.195 35.8221 234.181 38.8826 236.787C41.7792 239.259 45.629 240.525 47.8182 243.861C47.9746 244.099 48.4437 244.226 48.7863 244.248C53.8051 244.643 58.824 245 63.8429 245.395C65.9577 245.559 66.263 244.702 65.3992 242.945C64.3567 240.808 63.7237 238.388 62.3313 236.526C61.0728 234.843 62.7706 232.647 60.8718 231.299C59.7921 230.532 59.4123 229.326 58.9878 228.067C57.7592 224.374 56.3593 220.747 55.6295 216.898C55.3689 215.505 54.803 214.515 52.9339 214.723C49.449 215.11 45.9715 214.299 42.5015 214.06C39.7761 213.874 36.9986 214.001 34.2956 213.502C28.8448 212.497 23.3122 212.4 17.5412 211.901ZM135.112 107.644C133.556 104.852 131.806 102.022 129.729 99.386C126.393 95.1564 123.28 90.7481 119.549 86.8388C118.827 86.0792 118.12 85.6027 116.951 85.6101C111.113 85.6771 105.275 85.6176 99.4292 85.6399C98.6399 85.6399 97.7761 85.4538 97.1506 86.2729C92.7647 92.0661 87.8724 97.4797 84.0226 103.69C83.1961 105.03 81.9004 106.103 81.7291 107.644C99.5856 107.644 117.293 107.644 135.112 107.644ZM81.6398 254.934C85.9587 261.725 90.7616 267.622 95.289 273.728C97.6868 276.968 100.442 277.258 103.837 277.146C107.725 277.02 111.612 277.102 115.499 277.124C117.33 277.131 118.768 276.528 119.944 275.039C121.962 272.485 124.226 270.117 126.214 267.54C129.274 263.564 132.342 259.573 134.904 254.934C117.1 254.934 99.6228 254.934 81.6398 254.934ZM191.601 127.302C196.18 118.985 202.346 112.782 210.038 108.128C211.758 107.086 210.753 106.84 209.785 106.244C202.77 101.873 197.051 96.1691 192.703 89.1472C191.698 87.5238 191.325 87.6951 190.372 89.1397C185.51 96.5489 179.508 102.804 171.436 107.19C179.716 112.194 186.366 118.709 191.601 127.302ZM109.214 58.9669C107.509 58.7435 106.101 59.8754 104.508 60.0317C96.3464 60.8285 89.1681 70.4641 88.2001 77.4935C88.0511 78.5584 88.6617 79.4147 89.6893 78.9084C93.5912 76.9946 97.8208 78.1488 101.872 77.4787C105.483 76.8829 109.303 76.8457 113.093 77.2255C117.375 77.6499 121.776 76.7191 125.983 78.3946C126.981 78.7892 128.128 78.8562 129.222 78.9679C131.166 79.169 131.985 77.8808 131.374 76.3989C130.116 73.3459 129.505 70.0471 127.383 67.2994C122.736 61.2976 116.191 59.7116 109.214 58.9669ZM39.0687 247.301C33.3722 243.615 28.5246 239.259 25.0546 233.51C24.3993 232.423 23.8557 232.379 23.2005 233.667C22.5526 234.948 21.6888 236.161 20.7283 237.241C17.7274 240.629 14.652 243.958 10.6756 246.288C9.998 246.683 9.03741 247.361 10.5937 248.187C15.8136 250.972 19.5592 255.336 22.9324 260.064C23.8781 261.39 24.5334 261.762 25.6205 260.079C29.0161 254.785 33.4541 250.518 39.0687 247.301ZM84.596 274.064C80.4483 268.561 76.6209 262.931 73.1434 257.123C71.5648 254.494 69.733 253.675 66.9927 253.705C64.595 253.735 62.1898 253.69 59.7995 253.556C55.3242 253.303 50.8564 252.953 46.3811 252.67C45.9715 252.648 45.3535 252.514 45.279 253.147C45.2492 253.43 45.5099 253.839 45.763 254.04C48.0565 255.917 50.283 257.912 52.5988 259.737C56.9252 263.147 61.8696 265.604 66.8587 267.987C72.5254 270.683 78.4527 272.515 84.596 274.064ZM172.463 252.543C168.956 252.923 166.387 252.313 163.513 252.893C159.596 253.683 155.314 254.144 151.197 253.69C147.243 253.251 144.331 254.174 142.872 258.173C142.633 258.836 142.06 259.372 141.65 259.975C138.508 264.517 135.373 269.06 131.776 274.265C147.287 270.109 160.371 263.125 172.463 252.543ZM131.858 88.2164C136.557 94.4788 140.734 100.302 144.361 106.505C144.994 107.592 145.843 108.299 147.458 108.634C151.1 109.401 154.749 108.768 158.39 109.483C162.552 110.295 162.627 109.93 163.148 105.7C163.193 105.336 163.163 104.881 163.371 104.636C164.563 103.206 163.535 102.633 162.485 101.903C157.608 98.5222 152.418 95.6553 147.019 93.2576C142.32 91.1726 137.428 89.512 131.858 88.2164Z" fill="#272727"/>
<path d="M100.822 285.471C101.567 284.474 102.304 284.749 103.049 285.471C102.304 285.471 101.559 285.471 100.822 285.471Z" fill="#495059"/>
<path d="M109.727 285.472C110.471 284.683 111.208 284.683 111.953 285.472C111.208 285.472 110.464 285.472 109.727 285.472Z" fill="#020202"/>
<path d="M105.827 285.471C106.386 284.756 106.937 284.756 107.495 285.471C106.944 285.471 106.386 285.471 105.827 285.471Z" fill="#020202"/>
<path d="M195.988 227.515C196.546 227.88 197.105 228.245 197.656 228.617C196.129 228.736 196.003 230.151 195.385 231.097C194.037 233.145 193.054 235.438 191.26 237.18C187.879 236.406 185.511 237.508 183.716 240.591C182.428 242.817 180.172 243.629 177.454 243.8C169.97 244.262 162.464 244.456 155.003 245.342C153.633 245.506 151.741 246.124 150.848 244.835C150.17 243.86 151.6 242.639 152.099 241.551C155.733 233.584 158.964 225.482 160.99 216.934C161.355 215.407 162.122 214.826 163.931 214.692C172.487 214.059 181.058 213.702 189.591 212.667C192.101 212.362 194.662 211.967 197.232 211.982C198.572 211.989 198.773 212.235 198.564 213.732C198.162 216.681 196.718 219.108 195.348 221.55C194.231 223.554 194.015 225.244 195.519 227.031C195.459 227.411 195.623 227.56 195.988 227.515Z" fill="#9747FF"/>
<path d="M25.6873 117.519C25.6873 117.66 25.6873 117.802 25.6873 117.943C25.5532 117.824 25.4192 117.705 25.2852 117.593C25.4117 117.563 25.5532 117.541 25.6873 117.519Z" fill="#020202"/>
<path d="M87.9998 60.0186C87.9923 60.2494 87.9849 60.4802 87.9774 60.7185C87.8285 60.6292 87.687 60.5473 87.5381 60.4579C87.6945 60.309 87.8508 60.1675 87.9998 60.0186Z" fill="#020202"/>
<path d="M90.2399 57.9527C90.0388 58.0942 89.8378 58.2357 89.6367 58.3697C89.7261 58.0718 89.8378 57.8112 90.2399 57.9527Z" fill="#020202"/>
<path d="M91.7899 116.297C97.8364 116.647 105.015 115.187 112.208 115.768C119.029 116.319 125.865 116.081 132.678 116.371C134.942 116.468 137.228 116.9 139.514 116.796C140.75 116.736 141.085 117.518 141.487 118.315C145.858 126.908 149.835 135.65 152.277 145.032C152.739 146.797 152.292 146.894 150.892 146.902C143.691 146.916 136.468 146.581 129.327 146.068C125.649 145.807 122 146.008 118.351 145.799C109.751 145.315 101.143 145.524 92.542 145.799C83.8074 146.075 75.0727 146.477 66.3455 146.894C64.3797 146.991 63.7989 146.671 64.402 144.474C66.8742 135.523 70.7017 127.154 74.76 118.858C76.361 115.582 79.5852 116.9 82.0426 116.431C84.8126 115.895 87.7614 116.297 91.7899 116.297Z" fill="#575ED2"/>
<path d="M205.898 182.172C205.813 187.355 204.7 193.719 203.912 200.136C203.479 203.619 200.899 203.19 199.022 203.393C191.76 204.183 184.412 204.311 177.181 205.304C173.589 205.793 169.95 205.214 166.396 206.23C164.148 206.869 163.174 205.793 163.754 203.521C165.616 196.277 165.832 188.822 165.809 181.495C165.786 173.694 165.847 165.75 163.762 158.047C163.406 156.731 163.507 155.467 165.67 155.663C171.897 156.227 178.139 156.603 184.366 157.235C187.279 157.536 190.222 157.897 193.173 157.934C196.202 157.98 199.184 158.378 202.143 158.995C202.97 159.168 203.425 159.266 203.603 160.259C204.847 167.082 205.89 173.92 205.898 182.172Z" fill="#FF24BD"/>
<path d="M150.498 117.42C158.034 117.137 165.309 118.611 172.666 118.462C173.396 118.448 173.828 118.872 174.312 119.334C178.31 123.139 182.093 127.13 184.692 132.052C186.181 134.882 188.84 135.723 191.58 136.23C192.823 136.46 193.456 136.818 194.037 137.927C195.817 141.368 197.12 144.994 198.557 148.576C199.242 150.281 198.684 151.026 196.882 150.772C192.995 150.229 188.966 150.326 185.213 149.492C180.768 148.509 176.337 149.38 171.988 148.524C169.069 147.95 166.135 147.95 163.202 148.017C161.571 148.054 161.534 146.863 161.258 145.858C159.575 139.819 157.669 133.847 155.308 128.031C153.856 124.472 152.136 121.009 150.498 117.42Z" fill="#9747FF"/>
<path d="M17.54 211.901C23.311 212.4 28.8362 212.497 34.3019 213.51C37.0049 214.009 39.7824 213.882 42.5078 214.068C45.9778 214.307 49.4553 215.126 52.9402 214.731C54.8093 214.522 55.3677 215.513 55.6358 216.905C56.3656 220.755 57.7655 224.382 58.9941 228.075C59.4111 229.333 59.7983 230.54 60.8781 231.307C62.7769 232.654 61.0717 234.851 62.3376 236.534C63.73 238.396 64.3555 240.816 65.4055 242.953C66.2693 244.71 65.964 245.567 63.8492 245.403C58.8303 245.008 53.8114 244.651 48.7926 244.256C48.4575 244.226 47.9809 244.107 47.8245 243.869C45.6353 240.525 41.7855 239.259 38.8889 236.795C35.8358 234.196 33.3487 231.202 31.368 227.829C29.5138 224.679 27.1236 222.833 23.4301 223.183C22.0302 223.317 21.6877 222.512 21.2856 221.597C19.9527 218.506 18.5081 215.476 17.54 211.901Z" fill="#9747FF"/>
<path d="M135.113 107.644C117.286 107.644 99.5789 107.644 81.7373 107.644C81.9086 106.102 83.2042 105.03 84.0308 103.69C87.8731 97.4793 92.7654 92.0657 97.1588 86.2724C97.7768 85.4533 98.6481 85.6469 99.4374 85.6395C105.275 85.6172 111.121 85.6767 116.959 85.6097C118.128 85.5948 118.835 86.0788 119.558 86.8384C123.288 90.7477 126.401 95.156 129.737 99.3855C131.807 102.022 133.557 104.851 135.113 107.644Z" fill="#FF24BD"/>
<path d="M81.6406 254.934C99.6237 254.934 117.1 254.934 134.897 254.934C132.336 259.573 129.268 263.564 126.207 267.54C124.219 270.117 121.963 272.485 119.937 275.039C118.761 276.528 117.324 277.131 115.492 277.124C111.605 277.102 107.71 277.02 103.831 277.146C100.435 277.258 97.6802 276.967 95.2824 273.728C90.7625 267.622 85.9595 261.725 81.6406 254.934Z" fill="#FF24BD"/>
<path d="M191.6 127.303C186.365 118.71 179.723 112.194 171.442 107.198C179.514 102.812 185.509 96.5493 190.379 89.1476C191.332 87.703 191.704 87.5317 192.709 89.155C197.058 96.177 202.777 101.873 209.791 106.252C210.752 106.855 211.757 107.101 210.044 108.136C202.337 112.782 196.179 118.985 191.6 127.303Z" fill="#FFFCC7"/>
<path d="M109.214 58.9676C116.191 59.7122 122.737 61.2983 127.368 67.3001C129.483 70.0403 130.094 73.3465 131.36 76.3996C131.97 77.8814 131.151 79.1696 129.208 78.9686C128.12 78.8569 126.966 78.7899 125.968 78.3952C121.761 76.7198 117.368 77.658 113.079 77.2261C109.288 76.8464 105.476 76.8836 101.857 77.4793C97.8061 78.1495 93.5765 76.9953 89.6746 78.909C88.647 79.4154 88.0364 78.559 88.1853 77.4942C89.1608 70.4648 96.3391 60.8292 104.493 60.0324C106.101 59.876 107.509 58.7442 109.214 58.9676Z" fill="#7D7D7D"/>
<path d="M150.876 215.655C150.474 215.834 149.99 215.871 149.535 215.893C139.408 216.273 129.281 216.727 119.147 216.98C113.971 217.107 108.781 216.809 103.599 216.802C99.8084 216.794 95.9586 217.39 92.2354 216.906C85.4517 216.027 78.6234 217.07 71.8844 215.983C69.8962 215.722 67.8708 216.102 65.8826 215.402C64.5795 214.947 63.6933 215.647 64.155 217.129C67.1038 226.616 70.7823 235.805 75.4289 244.592C75.7863 245.269 76.2777 246.036 77.3351 245.962C79.3605 245.813 81.3636 246.394 83.3295 246.431C93.0545 246.58 102.787 246.446 112.519 246.409C121.395 246.788 130.257 246.379 139.118 245.977C140.481 245.917 141.002 245.083 141.493 244.048C143.109 240.682 144.822 237.354 146.378 233.958C148.865 228.53 150.533 222.796 152.469 217.159C152.909 215.878 152.678 214.851 150.876 215.655Z" fill="#575ED2"/>
<path d="M39.0692 247.301C33.4621 250.518 29.024 254.785 25.6136 260.079C24.5338 261.762 23.8786 261.39 22.9254 260.064C19.5522 255.343 15.8067 250.972 10.5867 248.187C9.03044 247.361 9.99102 246.69 10.6686 246.288C14.645 243.958 17.7204 240.629 20.7213 237.241C21.6744 236.161 22.5382 234.947 23.1935 233.667C23.8488 232.378 24.3849 232.423 25.0476 233.51C28.5177 239.259 33.3653 243.615 39.0692 247.301Z" fill="#FFFCC7"/>
<path d="M84.5968 274.065C78.4535 272.516 72.5262 270.677 66.8595 267.981C61.8704 265.606 56.926 263.141 52.5997 259.73C50.2838 257.906 48.0648 255.91 45.7639 254.034C45.5107 253.825 45.2426 253.416 45.2798 253.14C45.3543 252.507 45.9724 252.641 46.3819 252.664C50.8572 252.947 55.325 253.297 59.8003 253.55C62.1906 253.684 64.5958 253.729 66.9935 253.699C69.7264 253.669 71.5656 254.488 73.1443 257.117C76.6217 262.94 80.4417 268.569 84.5968 274.065Z" fill="#575ED2"/>
<path d="M172.465 252.543C160.372 263.117 147.289 270.109 131.785 274.257C135.382 269.052 138.517 264.509 141.659 259.967C142.076 259.371 142.642 258.828 142.88 258.165C144.34 254.166 147.251 253.243 151.205 253.682C155.323 254.136 159.605 253.675 163.522 252.885C166.389 252.32 168.958 252.93 172.465 252.543Z" fill="#575ED2"/>
<path d="M131.858 88.2148C137.428 89.5105 142.321 91.1711 147.019 93.2561C152.418 95.6538 157.608 98.5207 162.485 101.901C163.535 102.631 164.563 103.204 163.372 104.634C163.163 104.88 163.193 105.334 163.148 105.699C162.619 109.929 162.552 110.301 158.39 109.482C154.749 108.767 151.092 109.4 147.459 108.633C145.843 108.29 144.994 107.59 144.361 106.503C140.735 100.3 136.557 94.4773 131.858 88.2148Z" fill="#575ED2"/>
<path d="M57.4164 118.046C56.493 118.009 55.5697 117.957 54.6463 117.95C49.2328 117.905 43.8714 118.873 38.4802 118.947C36.0899 118.977 34.4517 119.707 33.0518 121.487C26.499 129.827 21.5843 139.068 17.8909 148.986C17.1165 151.064 18.4792 150.9 19.6557 150.729C24.831 149.991 24.9427 150.014 26.8862 154.117C30.3487 153.372 33.9528 153.886 37.393 152.933C38.6589 148.889 39.0983 148.606 43.2459 148.539C46.1351 148.495 48.9945 148.137 51.8241 147.512C53.5815 148.353 54.6538 148.256 55.2569 145.963C56.7686 140.259 58.6078 134.644 60.9087 129.201C62.5618 125.292 64.3118 121.435 66.1808 117.183C63.0235 117.838 60.1343 116.639 57.4164 118.046Z" fill="#9747FF"/>
<path d="M71.3034 92.8468C70.8491 92.8914 70.3353 92.817 69.9481 93.0031C62.0773 96.8231 54.3852 100.956 47.7951 106.816C46.7303 107.762 44.8165 107.985 44.6602 110.182C50.662 109.765 56.5446 109.355 62.4273 108.946C65.108 109.46 67.6621 108.201 70.3502 108.417C71.7129 108.529 72.7182 107.33 72.8746 106.235C73.1426 104.359 74.4085 103.212 75.3095 101.79C75.2202 101.403 75.4436 101.269 75.7712 101.216C78.1392 96.6593 81.7358 92.9287 84.7516 88.1406C79.7699 89.3693 75.384 90.6575 71.3034 92.8468Z" fill="#575ED2"/>
<path d="M52.8667 204.074C51.2658 197.834 51.2955 191.416 50.7892 185.064C50.1637 177.334 51.5264 169.657 51.9061 161.943C52.8444 160.565 52.4423 158.89 52.8816 157.378C53.2688 156.068 52.07 156.365 51.2881 156.432C49.836 156.373 48.451 156.373 46.9692 156.753C42.062 158.026 39.5153 156.894 37.3857 152.933C33.9454 153.878 30.3414 153.372 26.8788 154.117C26.3278 156.797 24.7864 158.212 21.994 158.696C20.4451 158.964 18.9186 159.18 17.3772 159.106C15.3369 159.001 14.287 160.178 14.0636 161.876C13.371 167.111 12.7009 172.36 12.3807 177.625C12.12 181.936 12.2541 186.263 12.8498 190.589C13.3562 194.26 13.587 197.954 14.4806 201.58C14.7859 202.801 15.2103 202.958 16.223 203.099C19.6558 203.561 23.1184 203.859 26.5437 204.328C29.3957 204.722 32.2849 204.29 35.0401 204.894C40.26 206.04 45.6139 205.549 50.8339 206.442C52.8667 206.785 53.2986 205.735 52.8667 204.074Z" fill="#FF24BD"/>
<path d="M195.987 254.873C195.622 254.918 195.458 254.769 195.525 254.396C195.682 254.56 195.831 254.717 195.987 254.873Z" fill="#020202"/>
<path d="M75.303 101.798C75.2137 101.411 75.437 101.277 75.7647 101.225C75.6158 101.418 75.4594 101.604 75.303 101.798Z" fill="#020202"/>
<path d="M136.438 179.688C139.544 179.793 142.664 179.346 145.493 181.394C150.721 185.184 150.467 191.856 144.83 195.021C137.913 198.908 129.781 196.242 127.346 189.518C126.274 186.561 128.456 184.886 129.245 182.652C133.102 183.68 133.974 183.322 136.438 179.688Z" fill="#EF5D84"/>
<path d="M87.8581 182.474C89.5484 185.921 90.7994 189.399 87.8432 192.795C85.021 196.041 81.2457 197.404 77.1427 196.853C72.8163 196.272 69.3538 193.964 67.6783 189.652C66.8964 187.642 68.2368 183.933 70.3665 182.236C72.4366 180.59 74.6779 179.384 77.4927 179.704C78.5724 179.823 79.7266 179.927 80.6946 179.16C81.4839 183.233 83.3381 184.09 87.8581 182.474Z" fill="#EF5D84"/>
<path d="M136.438 179.688C133.973 183.314 133.109 183.671 129.252 182.651C127.577 180.819 126.825 175.629 127.934 173.492C128.902 171.623 130.593 170.99 132.469 171.43C134.442 171.891 135.731 173.246 135.902 175.428C136.006 176.858 135.477 178.37 136.438 179.688Z" fill="black"/>
<path d="M87.8587 182.473C83.3388 184.089 81.4772 183.226 80.6953 179.152C81.2017 177.246 80.2336 175.236 81.3506 173.292C82.4154 171.438 83.9717 171.073 85.6844 171.43C87.5385 171.825 88.9906 173.039 89.1023 175.109C89.2438 177.641 89.4374 180.225 87.8587 182.473Z" fill="black"/>
<path d="M157.103 172.956C156.701 167.795 155.83 162.695 155.331 157.557C155.249 156.723 154.773 155.985 153.44 155.702C149.098 154.794 144.668 154.995 140.341 154.854C130.669 154.526 120.988 153.841 111.308 153.923C100.98 154.012 90.6516 154.593 80.3235 154.608C74.6047 154.615 68.9305 155.494 63.2191 155.241C62.1543 155.196 61.5139 155.494 61.2979 156.693C59.9948 163.953 59.414 171.28 59.1013 178.637C58.8109 185.525 59.63 192.361 60.2852 199.204C60.3448 200.433 60.6054 201.677 60.8661 202.823C61.3054 204.722 60.7693 208.051 64.6637 206.889C65.1924 207.232 65.6615 207.589 66.3838 207.581C75.1185 207.514 83.8382 208.535 92.543 208.542C103.035 208.557 113.542 208.706 124.056 208.267C133.602 207.864 143.156 207.336 152.71 207.075C154.415 207.03 155.048 206.383 155.227 205.087C155.904 200.336 156.791 195.578 156.977 190.797C157.208 184.855 157.565 178.913 157.103 172.956ZM87.8443 192.793C85.0222 196.04 81.2468 197.402 77.1439 196.851C72.8175 196.27 69.3549 193.962 67.6795 189.651C66.8976 187.64 68.238 183.932 70.3677 182.234C72.4377 180.588 74.6791 179.382 77.4939 179.702C78.5736 179.821 79.7278 179.926 80.6958 179.159C81.2022 177.252 80.2341 175.242 81.3511 173.298C82.4159 171.444 83.9722 171.079 85.6849 171.437C87.539 171.831 88.9911 173.045 89.1028 175.115C89.2443 177.64 89.4453 180.216 87.8667 182.472C89.5496 185.92 90.8006 189.397 87.8443 192.793ZM144.832 195.019C137.914 198.906 129.782 196.241 127.347 189.517C126.275 186.56 128.457 184.885 129.254 182.651C127.578 180.819 126.826 175.629 127.936 173.492C128.904 171.623 130.594 170.99 132.471 171.429C134.444 171.891 135.732 173.246 135.903 175.428C136.015 176.858 135.486 178.369 136.447 179.687C139.552 179.792 142.672 179.345 145.502 181.393C150.722 185.183 150.469 191.855 144.832 195.019Z" fill="#FFFCC7"/>
<path d="M109.989 200.321C106.459 200.425 103.66 199.181 101.351 196.731C99.3482 194.609 99.0876 192.48 100.674 190.655C101.731 189.434 105.305 189.114 106.75 190.514C109.23 192.919 111.255 192.144 113.422 190.208C115.358 188.473 117.346 189.099 119.051 190.521C120.771 191.966 120.734 194.252 119.163 196.106C116.721 198.973 113.668 200.507 109.989 200.321Z" fill="black"/>
<path d="M95.6388 189.081H75.4144C72.7561 189.081 70.4775 186.809 70.0009 183.682L67.7819 169.027C67.1713 164.992 69.7626 161.283 73.1954 161.283H97.8653C101.298 161.283 103.889 164.999 103.279 169.027L101.06 183.682C100.568 186.809 98.2972 189.081 95.6388 189.081Z" fill="black"/>
<path d="M142.593 189.081H122.369C119.71 189.081 117.432 186.809 116.955 183.682L114.736 169.027C114.125 164.992 116.717 161.283 120.15 161.283H144.819C148.252 161.283 150.844 164.999 150.233 169.027L148.014 183.682C147.53 186.809 145.251 189.081 142.593 189.081Z" fill="black"/>
<path d="M118.877 169.951H99.1367V177.398H118.877V169.951Z" fill="black"/>
</svg>
